<svg width="60" height="32" viewBox="0 0 60 32" fill="none" xmlns="http://www.w3.org/2000/svg">
<path d="M58.0246 11.6512H55.2512L48.5653 0H23.7528L14.4172 11.6512H2.93689C1.12412 11.6512 -0.254823 13.2702 0.0397865 15.0598L1.80603 25.8201C1.80603 25.9052 1.87564 25.9828 1.96096 25.9828H9.5063C9.89361 22.6128 12.7599 19.9868 16.2304 19.9868C19.7009 19.9868 22.5674 22.6128 22.9547 25.9828H40.2456C40.6329 22.6128 43.4994 19.9868 46.9699 19.9868C50.4404 19.9868 53.3067 22.6128 53.6943 25.9828H58.0247C59.1169 25.9828 60 25.0995 60 24.0072V13.6264C59.9999 12.5344 59.1169 11.6512 58.0246 11.6512ZM38.425 4.64812H45.2108L49.4176 11.6512L49.5646 12.0859L49.596 12.2012H38.425V4.64812ZM21.0764 12.1908L21.2966 11.6512L26.8981 4.64812H33.1109V12.2013H24.3675L21.0764 12.1908Z" fill="#263B33"/>
<path d="M16.2305 22.3109C14.0383 22.3109 12.2178 23.8991 11.8538 25.9829C11.8071 26.2306 11.7837 26.4941 11.7837 26.7576C11.7837 29.2055 13.7747 31.1964 16.2304 31.1964C18.6863 31.1964 20.6772 29.2054 20.6772 26.7576C20.6772 26.4942 20.654 26.2307 20.6075 25.9829C20.2434 23.8989 18.4229 22.3109 16.2305 22.3109Z" fill="#263B33"/>
<path d="M46.9699 22.3109C44.7774 22.3109 42.9569 23.8991 42.5929 25.9829C42.5463 26.2306 42.5231 26.4941 42.5231 26.7576C42.5231 29.2055 44.5138 31.1964 46.9697 31.1964C49.4254 31.1964 51.4163 29.2054 51.4163 26.7576C51.4163 26.4942 51.3931 26.2307 51.3467 25.9829C50.9827 23.8989 49.1622 22.3109 46.9699 22.3109Z" fill="#263B33"/>
</svg>
