<svg width="390" height="844" viewBox="0 0 390 844" fill="none" xmlns="http://www.w3.org/2000/svg">
<rect width="390" height="844" fill="white"/>
<g filter="url(#filter0_d_225_627)">
<rect x="28" y="353" width="334" height="66" rx="20" fill="#FFFDF4"/>
<path d="M94.9141 381.041L90.207 394H88.2832L93.7031 379.781H94.9434L94.9141 381.041ZM98.8594 394L94.1426 381.041L94.1133 379.781H95.3535L100.793 394H98.8594ZM98.6152 388.736V390.279H90.627V388.736H98.6152ZM107.766 387.35H104.162L104.143 385.836H107.414C107.954 385.836 108.426 385.745 108.83 385.562C109.234 385.38 109.546 385.12 109.768 384.781C109.995 384.436 110.109 384.026 110.109 383.551C110.109 383.03 110.008 382.607 109.807 382.281C109.611 381.949 109.309 381.708 108.898 381.559C108.495 381.402 107.98 381.324 107.355 381.324H104.582V394H102.697V379.781H107.355C108.085 379.781 108.736 379.856 109.309 380.006C109.882 380.149 110.367 380.377 110.764 380.689C111.167 380.995 111.473 381.386 111.682 381.861C111.89 382.337 111.994 382.906 111.994 383.57C111.994 384.156 111.844 384.687 111.545 385.162C111.245 385.631 110.829 386.015 110.295 386.314C109.768 386.614 109.149 386.806 108.439 386.891L107.766 387.35ZM107.678 394H103.42L104.484 392.467H107.678C108.277 392.467 108.785 392.363 109.201 392.154C109.624 391.946 109.947 391.653 110.168 391.275C110.389 390.891 110.5 390.439 110.5 389.918C110.5 389.391 110.406 388.935 110.217 388.551C110.028 388.167 109.732 387.87 109.328 387.662C108.924 387.454 108.404 387.35 107.766 387.35H105.08L105.1 385.836H108.771L109.172 386.383C109.855 386.441 110.435 386.637 110.91 386.969C111.385 387.294 111.747 387.711 111.994 388.219C112.248 388.727 112.375 389.286 112.375 389.898C112.375 390.784 112.18 391.533 111.789 392.145C111.405 392.75 110.861 393.212 110.158 393.531C109.455 393.844 108.628 394 107.678 394ZM123.742 389.479H125.617C125.52 390.377 125.262 391.181 124.846 391.891C124.429 392.6 123.84 393.163 123.078 393.58C122.316 393.99 121.366 394.195 120.227 394.195C119.393 394.195 118.635 394.039 117.951 393.727C117.274 393.414 116.691 392.971 116.203 392.398C115.715 391.819 115.337 391.126 115.07 390.318C114.81 389.505 114.68 388.6 114.68 387.604V386.188C114.68 385.191 114.81 384.29 115.07 383.482C115.337 382.669 115.718 381.972 116.213 381.393C116.714 380.813 117.316 380.367 118.02 380.055C118.723 379.742 119.514 379.586 120.393 379.586C121.467 379.586 122.375 379.788 123.117 380.191C123.859 380.595 124.436 381.155 124.846 381.871C125.262 382.581 125.52 383.404 125.617 384.342H123.742C123.651 383.678 123.482 383.108 123.234 382.633C122.987 382.151 122.635 381.78 122.18 381.52C121.724 381.259 121.128 381.129 120.393 381.129C119.761 381.129 119.204 381.249 118.723 381.49C118.247 381.731 117.847 382.073 117.521 382.516C117.202 382.958 116.962 383.489 116.799 384.107C116.636 384.726 116.555 385.413 116.555 386.168V387.604C116.555 388.3 116.626 388.954 116.77 389.566C116.919 390.178 117.144 390.715 117.443 391.178C117.743 391.64 118.124 392.005 118.586 392.271C119.048 392.532 119.595 392.662 120.227 392.662C121.027 392.662 121.665 392.535 122.141 392.281C122.616 392.027 122.974 391.663 123.215 391.188C123.462 390.712 123.638 390.143 123.742 389.479ZM134.367 379.781L137.785 385.23L141.203 379.781H143.4L138.908 386.822L143.508 394H141.291L137.785 388.443L134.279 394H132.062L136.662 386.822L132.17 379.781H134.367ZM146.34 379.781L150.031 386.92L153.732 379.781H155.871L150.969 388.688V394H149.084V388.688L144.182 379.781H146.34ZM167.238 392.467V394H157.609V392.467H167.238ZM166.926 381.148L158.059 394H156.896V392.594L165.754 379.781H166.926V381.148ZM166.125 379.781V381.324H157.023V379.781H166.125Z" fill="#263B33" fill-opacity="0.8"/>
<path d="M42 386C42 375.531 50.531 367 61 367C71.469 367 80 375.531 80 386C80 391.51 77.625 396.469 73.863 399.946C73.863 399.965 73.863 399.965 73.882 399.984C73.692 400.174 73.464 400.326 73.274 400.497C73.16 400.592 73.065 400.687 72.951 400.763C72.609 401.048 72.229 401.314 71.868 401.58C71.735 401.675 71.621 401.751 71.488 401.846C71.127 402.093 70.747 402.321 70.348 402.53C70.215 402.606 70.063 402.701 69.93 402.777C69.55 402.986 69.151 403.176 68.733 403.347C68.581 403.423 68.429 403.499 68.277 403.556C67.859 403.727 67.441 403.879 67.023 404.012C66.871 404.069 66.719 404.126 66.567 404.164C66.111 404.297 65.655 404.411 65.199 404.525C65.066 404.563 64.933 404.601 64.781 404.62C64.249 404.734 63.717 404.81 63.166 404.867C63.09 404.867 63.014 404.886 62.938 404.905C62.292 404.962 61.646 405 61 405C60.354 405 59.708 404.962 59.081 404.905C59.005 404.905 58.929 404.886 58.853 404.867C58.302 404.81 57.77 404.734 57.238 404.62C57.105 404.601 56.972 404.544 56.82 404.525C56.364 404.411 55.889 404.316 55.452 404.164C55.3 404.107 55.148 404.05 54.996 404.012C54.578 403.86 54.141 403.727 53.742 403.556C53.59 403.499 53.438 403.423 53.286 403.347C52.887 403.176 52.488 402.986 52.089 402.777C51.937 402.701 51.804 402.606 51.671 402.53C51.291 402.302 50.911 402.093 50.531 401.846C50.398 401.77 50.284 401.675 50.151 401.58C49.771 401.314 49.41 401.048 49.068 400.763C48.954 400.668 48.859 400.573 48.745 400.497C48.536 400.326 48.327 400.155 48.137 399.984C48.137 399.965 48.137 399.965 48.156 399.946C44.375 396.469 42 391.51 42 386ZM51.614 395.443C56.763 391.985 65.199 391.985 70.386 395.443C71.222 395.994 71.906 396.64 72.476 397.343C75.364 394.417 77.15 390.408 77.15 386C77.15 377.089 69.911 369.85 61 369.85C52.089 369.85 44.85 377.089 44.85 386C44.85 390.408 46.636 394.417 49.524 397.343C50.075 396.64 50.778 395.994 51.614 395.443Z" fill="#263B33" fill-opacity="0.8"/>
<path d="M61 376.366C64.933 376.366 68.125 379.558 68.125 383.491C68.125 387.348 65.104 390.483 61.095 390.597C61.038 390.597 60.962 390.597 60.924 390.597C60.886 390.597 60.829 390.597 60.791 390.597C60.772 390.597 60.753 390.597 60.753 390.597C56.915 390.464 53.894 387.348 53.875 383.491C53.875 379.558 57.067 376.366 61 376.366Z" fill="#263B33" fill-opacity="0.8"/>
</g>
<g filter="url(#filter1_d_225_627)">
<rect x="28" y="259" width="334" height="66" rx="20" fill="#FFFDF4"/>
<path d="M99.9141 286.041L95.207 299H93.2832L98.7031 284.781H99.9434L99.9141 286.041ZM103.859 299L99.1426 286.041L99.1133 284.781H100.354L105.793 299H103.859ZM103.615 293.736V295.279H95.627V293.736H103.615ZM112.766 292.35H109.162L109.143 290.836H112.414C112.954 290.836 113.426 290.745 113.83 290.562C114.234 290.38 114.546 290.12 114.768 289.781C114.995 289.436 115.109 289.026 115.109 288.551C115.109 288.03 115.008 287.607 114.807 287.281C114.611 286.949 114.309 286.708 113.898 286.559C113.495 286.402 112.98 286.324 112.355 286.324H109.582V299H107.697V284.781H112.355C113.085 284.781 113.736 284.856 114.309 285.006C114.882 285.149 115.367 285.377 115.764 285.689C116.167 285.995 116.473 286.386 116.682 286.861C116.89 287.337 116.994 287.906 116.994 288.57C116.994 289.156 116.844 289.687 116.545 290.162C116.245 290.631 115.829 291.015 115.295 291.314C114.768 291.614 114.149 291.806 113.439 291.891L112.766 292.35ZM112.678 299H108.42L109.484 297.467H112.678C113.277 297.467 113.785 297.363 114.201 297.154C114.624 296.946 114.947 296.653 115.168 296.275C115.389 295.891 115.5 295.439 115.5 294.918C115.5 294.391 115.406 293.935 115.217 293.551C115.028 293.167 114.732 292.87 114.328 292.662C113.924 292.454 113.404 292.35 112.766 292.35H110.08L110.1 290.836H113.771L114.172 291.383C114.855 291.441 115.435 291.637 115.91 291.969C116.385 292.294 116.747 292.711 116.994 293.219C117.248 293.727 117.375 294.286 117.375 294.898C117.375 295.784 117.18 296.533 116.789 297.145C116.405 297.75 115.861 298.212 115.158 298.531C114.455 298.844 113.628 299 112.678 299ZM128.742 294.479H130.617C130.52 295.377 130.262 296.181 129.846 296.891C129.429 297.6 128.84 298.163 128.078 298.58C127.316 298.99 126.366 299.195 125.227 299.195C124.393 299.195 123.635 299.039 122.951 298.727C122.274 298.414 121.691 297.971 121.203 297.398C120.715 296.819 120.337 296.126 120.07 295.318C119.81 294.505 119.68 293.6 119.68 292.604V291.188C119.68 290.191 119.81 289.29 120.07 288.482C120.337 287.669 120.718 286.972 121.213 286.393C121.714 285.813 122.316 285.367 123.02 285.055C123.723 284.742 124.514 284.586 125.393 284.586C126.467 284.586 127.375 284.788 128.117 285.191C128.859 285.595 129.436 286.155 129.846 286.871C130.262 287.581 130.52 288.404 130.617 289.342H128.742C128.651 288.678 128.482 288.108 128.234 287.633C127.987 287.151 127.635 286.78 127.18 286.52C126.724 286.259 126.128 286.129 125.393 286.129C124.761 286.129 124.204 286.249 123.723 286.49C123.247 286.731 122.847 287.073 122.521 287.516C122.202 287.958 121.962 288.489 121.799 289.107C121.636 289.726 121.555 290.413 121.555 291.168V292.604C121.555 293.3 121.626 293.954 121.77 294.566C121.919 295.178 122.144 295.715 122.443 296.178C122.743 296.64 123.124 297.005 123.586 297.271C124.048 297.532 124.595 297.662 125.227 297.662C126.027 297.662 126.665 297.535 127.141 297.281C127.616 297.027 127.974 296.663 128.215 296.188C128.462 295.712 128.638 295.143 128.742 294.479ZM139.367 284.781L142.785 290.23L146.203 284.781H148.4L143.908 291.822L148.508 299H146.291L142.785 293.443L139.279 299H137.062L141.662 291.822L137.17 284.781H139.367ZM151.34 284.781L155.031 291.92L158.732 284.781H160.871L155.969 293.688V299H154.084V293.688L149.182 284.781H151.34ZM172.238 297.467V299H162.609V297.467H172.238ZM171.926 286.148L163.059 299H161.896V297.594L170.754 284.781H171.926V286.148ZM171.125 284.781V286.324H162.023V284.781H171.125Z" fill="#263B33" fill-opacity="0.8"/>
<path d="M42 292C42 281.531 50.531 273 61 273C71.469 273 80 281.531 80 292C80 297.51 77.625 302.469 73.863 305.946C73.863 305.965 73.863 305.965 73.882 305.984C73.692 306.174 73.464 306.326 73.274 306.497C73.16 306.592 73.065 306.687 72.951 306.763C72.609 307.048 72.229 307.314 71.868 307.58C71.735 307.675 71.621 307.751 71.488 307.846C71.127 308.093 70.747 308.321 70.348 308.53C70.215 308.606 70.063 308.701 69.93 308.777C69.55 308.986 69.151 309.176 68.733 309.347C68.581 309.423 68.429 309.499 68.277 309.556C67.859 309.727 67.441 309.879 67.023 310.012C66.871 310.069 66.719 310.126 66.567 310.164C66.111 310.297 65.655 310.411 65.199 310.525C65.066 310.563 64.933 310.601 64.781 310.62C64.249 310.734 63.717 310.81 63.166 310.867C63.09 310.867 63.014 310.886 62.938 310.905C62.292 310.962 61.646 311 61 311C60.354 311 59.708 310.962 59.081 310.905C59.005 310.905 58.929 310.886 58.853 310.867C58.302 310.81 57.77 310.734 57.238 310.62C57.105 310.601 56.972 310.544 56.82 310.525C56.364 310.411 55.889 310.316 55.452 310.164C55.3 310.107 55.148 310.05 54.996 310.012C54.578 309.86 54.141 309.727 53.742 309.556C53.59 309.499 53.438 309.423 53.286 309.347C52.887 309.176 52.488 308.986 52.089 308.777C51.937 308.701 51.804 308.606 51.671 308.53C51.291 308.302 50.911 308.093 50.531 307.846C50.398 307.77 50.284 307.675 50.151 307.58C49.771 307.314 49.41 307.048 49.068 306.763C48.954 306.668 48.859 306.573 48.745 306.497C48.536 306.326 48.327 306.155 48.137 305.984C48.137 305.965 48.137 305.965 48.156 305.946C44.375 302.469 42 297.51 42 292ZM51.614 301.443C56.763 297.985 65.199 297.985 70.386 301.443C71.222 301.994 71.906 302.64 72.476 303.343C75.364 300.417 77.15 296.408 77.15 292C77.15 283.089 69.911 275.85 61 275.85C52.089 275.85 44.85 283.089 44.85 292C44.85 296.408 46.636 300.417 49.524 303.343C50.075 302.64 50.778 301.994 51.614 301.443Z" fill="#263B33" fill-opacity="0.8"/>
<path d="M61 282.366C64.933 282.366 68.125 285.558 68.125 289.491C68.125 293.348 65.104 296.483 61.095 296.597C61.038 296.597 60.962 296.597 60.924 296.597C60.886 296.597 60.829 296.597 60.791 296.597C60.772 296.597 60.753 296.597 60.753 296.597C56.915 296.464 53.894 293.348 53.875 289.491C53.875 285.558 57.067 282.366 61 282.366Z" fill="#263B33" fill-opacity="0.8"/>
</g>
<g filter="url(#filter2_d_225_627)">
<rect x="28" y="165" width="334" height="66" rx="20" fill="#FFFDF4"/>
<path d="M99.9141 192.041L95.207 205H93.2832L98.7031 190.781H99.9434L99.9141 192.041ZM103.859 205L99.1426 192.041L99.1133 190.781H100.354L105.793 205H103.859ZM103.615 199.736V201.279H95.627V199.736H103.615ZM112.766 198.35H109.162L109.143 196.836H112.414C112.954 196.836 113.426 196.745 113.83 196.562C114.234 196.38 114.546 196.12 114.768 195.781C114.995 195.436 115.109 195.026 115.109 194.551C115.109 194.03 115.008 193.607 114.807 193.281C114.611 192.949 114.309 192.708 113.898 192.559C113.495 192.402 112.98 192.324 112.355 192.324H109.582V205H107.697V190.781H112.355C113.085 190.781 113.736 190.856 114.309 191.006C114.882 191.149 115.367 191.377 115.764 191.689C116.167 191.995 116.473 192.386 116.682 192.861C116.89 193.337 116.994 193.906 116.994 194.57C116.994 195.156 116.844 195.687 116.545 196.162C116.245 196.631 115.829 197.015 115.295 197.314C114.768 197.614 114.149 197.806 113.439 197.891L112.766 198.35ZM112.678 205H108.42L109.484 203.467H112.678C113.277 203.467 113.785 203.363 114.201 203.154C114.624 202.946 114.947 202.653 115.168 202.275C115.389 201.891 115.5 201.439 115.5 200.918C115.5 200.391 115.406 199.935 115.217 199.551C115.028 199.167 114.732 198.87 114.328 198.662C113.924 198.454 113.404 198.35 112.766 198.35H110.08L110.1 196.836H113.771L114.172 197.383C114.855 197.441 115.435 197.637 115.91 197.969C116.385 198.294 116.747 198.711 116.994 199.219C117.248 199.727 117.375 200.286 117.375 200.898C117.375 201.784 117.18 202.533 116.789 203.145C116.405 203.75 115.861 204.212 115.158 204.531C114.455 204.844 113.628 205 112.678 205ZM128.742 200.479H130.617C130.52 201.377 130.262 202.181 129.846 202.891C129.429 203.6 128.84 204.163 128.078 204.58C127.316 204.99 126.366 205.195 125.227 205.195C124.393 205.195 123.635 205.039 122.951 204.727C122.274 204.414 121.691 203.971 121.203 203.398C120.715 202.819 120.337 202.126 120.07 201.318C119.81 200.505 119.68 199.6 119.68 198.604V197.188C119.68 196.191 119.81 195.29 120.07 194.482C120.337 193.669 120.718 192.972 121.213 192.393C121.714 191.813 122.316 191.367 123.02 191.055C123.723 190.742 124.514 190.586 125.393 190.586C126.467 190.586 127.375 190.788 128.117 191.191C128.859 191.595 129.436 192.155 129.846 192.871C130.262 193.581 130.52 194.404 130.617 195.342H128.742C128.651 194.678 128.482 194.108 128.234 193.633C127.987 193.151 127.635 192.78 127.18 192.52C126.724 192.259 126.128 192.129 125.393 192.129C124.761 192.129 124.204 192.249 123.723 192.49C123.247 192.731 122.847 193.073 122.521 193.516C122.202 193.958 121.962 194.489 121.799 195.107C121.636 195.726 121.555 196.413 121.555 197.168V198.604C121.555 199.3 121.626 199.954 121.77 200.566C121.919 201.178 122.144 201.715 122.443 202.178C122.743 202.64 123.124 203.005 123.586 203.271C124.048 203.532 124.595 203.662 125.227 203.662C126.027 203.662 126.665 203.535 127.141 203.281C127.616 203.027 127.974 202.663 128.215 202.188C128.462 201.712 128.638 201.143 128.742 200.479ZM139.367 190.781L142.785 196.23L146.203 190.781H148.4L143.908 197.822L148.508 205H146.291L142.785 199.443L139.279 205H137.062L141.662 197.822L137.17 190.781H139.367ZM151.34 190.781L155.031 197.92L158.732 190.781H160.871L155.969 199.688V205H154.084V199.688L149.182 190.781H151.34ZM172.238 203.467V205H162.609V203.467H172.238ZM171.926 192.148L163.059 205H161.896V203.594L170.754 190.781H171.926V192.148ZM171.125 190.781V192.324H162.023V190.781H171.125Z" fill="#263B33" fill-opacity="0.8"/>
<path d="M42 198C42 187.531 50.531 179 61 179C71.469 179 80 187.531 80 198C80 203.51 77.625 208.469 73.863 211.946C73.863 211.965 73.863 211.965 73.882 211.984C73.692 212.174 73.464 212.326 73.274 212.497C73.16 212.592 73.065 212.687 72.951 212.763C72.609 213.048 72.229 213.314 71.868 213.58C71.735 213.675 71.621 213.751 71.488 213.846C71.127 214.093 70.747 214.321 70.348 214.53C70.215 214.606 70.063 214.701 69.93 214.777C69.55 214.986 69.151 215.176 68.733 215.347C68.581 215.423 68.429 215.499 68.277 215.556C67.859 215.727 67.441 215.879 67.023 216.012C66.871 216.069 66.719 216.126 66.567 216.164C66.111 216.297 65.655 216.411 65.199 216.525C65.066 216.563 64.933 216.601 64.781 216.62C64.249 216.734 63.717 216.81 63.166 216.867C63.09 216.867 63.014 216.886 62.938 216.905C62.292 216.962 61.646 217 61 217C60.354 217 59.708 216.962 59.081 216.905C59.005 216.905 58.929 216.886 58.853 216.867C58.302 216.81 57.77 216.734 57.238 216.62C57.105 216.601 56.972 216.544 56.82 216.525C56.364 216.411 55.889 216.316 55.452 216.164C55.3 216.107 55.148 216.05 54.996 216.012C54.578 215.86 54.141 215.727 53.742 215.556C53.59 215.499 53.438 215.423 53.286 215.347C52.887 215.176 52.488 214.986 52.089 214.777C51.937 214.701 51.804 214.606 51.671 214.53C51.291 214.302 50.911 214.093 50.531 213.846C50.398 213.77 50.284 213.675 50.151 213.58C49.771 213.314 49.41 213.048 49.068 212.763C48.954 212.668 48.859 212.573 48.745 212.497C48.536 212.326 48.327 212.155 48.137 211.984C48.137 211.965 48.137 211.965 48.156 211.946C44.375 208.469 42 203.51 42 198ZM51.614 207.443C56.763 203.985 65.199 203.985 70.386 207.443C71.222 207.994 71.906 208.64 72.476 209.343C75.364 206.417 77.15 202.408 77.15 198C77.15 189.089 69.911 181.85 61 181.85C52.089 181.85 44.85 189.089 44.85 198C44.85 202.408 46.636 206.417 49.524 209.343C50.075 208.64 50.778 207.994 51.614 207.443Z" fill="#263B33" fill-opacity="0.8"/>
<path d="M61 188.366C64.933 188.366 68.125 191.558 68.125 195.491C68.125 199.348 65.104 202.483 61.095 202.597C61.038 202.597 60.962 202.597 60.924 202.597C60.886 202.597 60.829 202.597 60.791 202.597C60.772 202.597 60.753 202.597 60.753 202.597C56.915 202.464 53.894 199.348 53.875 195.491C53.875 191.558 57.067 188.366 61 188.366Z" fill="#263B33" fill-opacity="0.8"/>
</g>
<g filter="url(#filter3_d_225_627)">
<rect x="28" y="718" width="334" height="66" rx="20" fill="#FFFDF4"/>
<path d="M94.9141 746.041L90.207 759H88.2832L93.7031 744.781H94.9434L94.9141 746.041ZM98.8594 759L94.1426 746.041L94.1133 744.781H95.3535L100.793 759H98.8594ZM98.6152 753.736V755.279H90.627V753.736H98.6152ZM107.766 752.35H104.162L104.143 750.836H107.414C107.954 750.836 108.426 750.745 108.83 750.562C109.234 750.38 109.546 750.12 109.768 749.781C109.995 749.436 110.109 749.026 110.109 748.551C110.109 748.03 110.008 747.607 109.807 747.281C109.611 746.949 109.309 746.708 108.898 746.559C108.495 746.402 107.98 746.324 107.355 746.324H104.582V759H102.697V744.781H107.355C108.085 744.781 108.736 744.856 109.309 745.006C109.882 745.149 110.367 745.377 110.764 745.689C111.167 745.995 111.473 746.386 111.682 746.861C111.89 747.337 111.994 747.906 111.994 748.57C111.994 749.156 111.844 749.687 111.545 750.162C111.245 750.631 110.829 751.015 110.295 751.314C109.768 751.614 109.149 751.806 108.439 751.891L107.766 752.35ZM107.678 759H103.42L104.484 757.467H107.678C108.277 757.467 108.785 757.363 109.201 757.154C109.624 756.946 109.947 756.653 110.168 756.275C110.389 755.891 110.5 755.439 110.5 754.918C110.5 754.391 110.406 753.935 110.217 753.551C110.028 753.167 109.732 752.87 109.328 752.662C108.924 752.454 108.404 752.35 107.766 752.35H105.08L105.1 750.836H108.771L109.172 751.383C109.855 751.441 110.435 751.637 110.91 751.969C111.385 752.294 111.747 752.711 111.994 753.219C112.248 753.727 112.375 754.286 112.375 754.898C112.375 755.784 112.18 756.533 111.789 757.145C111.405 757.75 110.861 758.212 110.158 758.531C109.455 758.844 108.628 759 107.678 759ZM123.742 754.479H125.617C125.52 755.377 125.262 756.181 124.846 756.891C124.429 757.6 123.84 758.163 123.078 758.58C122.316 758.99 121.366 759.195 120.227 759.195C119.393 759.195 118.635 759.039 117.951 758.727C117.274 758.414 116.691 757.971 116.203 757.398C115.715 756.819 115.337 756.126 115.07 755.318C114.81 754.505 114.68 753.6 114.68 752.604V751.188C114.68 750.191 114.81 749.29 115.07 748.482C115.337 747.669 115.718 746.972 116.213 746.393C116.714 745.813 117.316 745.367 118.02 745.055C118.723 744.742 119.514 744.586 120.393 744.586C121.467 744.586 122.375 744.788 123.117 745.191C123.859 745.595 124.436 746.155 124.846 746.871C125.262 747.581 125.52 748.404 125.617 749.342H123.742C123.651 748.678 123.482 748.108 123.234 747.633C122.987 747.151 122.635 746.78 122.18 746.52C121.724 746.259 121.128 746.129 120.393 746.129C119.761 746.129 119.204 746.249 118.723 746.49C118.247 746.731 117.847 747.073 117.521 747.516C117.202 747.958 116.962 748.489 116.799 749.107C116.636 749.726 116.555 750.413 116.555 751.168V752.604C116.555 753.3 116.626 753.954 116.77 754.566C116.919 755.178 117.144 755.715 117.443 756.178C117.743 756.64 118.124 757.005 118.586 757.271C119.048 757.532 119.595 757.662 120.227 757.662C121.027 757.662 121.665 757.535 122.141 757.281C122.616 757.027 122.974 756.663 123.215 756.188C123.462 755.712 123.638 755.143 123.742 754.479ZM134.367 744.781L137.785 750.23L141.203 744.781H143.4L138.908 751.822L143.508 759H141.291L137.785 753.443L134.279 759H132.062L136.662 751.822L132.17 744.781H134.367ZM146.34 744.781L150.031 751.92L153.732 744.781H155.871L150.969 753.688V759H149.084V753.688L144.182 744.781H146.34ZM167.238 757.467V759H157.609V757.467H167.238ZM166.926 746.148L158.059 759H156.896V757.594L165.754 744.781H166.926V746.148ZM166.125 744.781V746.324H157.023V744.781H166.125Z" fill="#263B33" fill-opacity="0.8"/>
<path d="M42 751C42 740.531 50.531 732 61 732C71.469 732 80 740.531 80 751C80 756.51 77.625 761.469 73.863 764.946C73.863 764.965 73.863 764.965 73.882 764.984C73.692 765.174 73.464 765.326 73.274 765.497C73.16 765.592 73.065 765.687 72.951 765.763C72.609 766.048 72.229 766.314 71.868 766.58C71.735 766.675 71.621 766.751 71.488 766.846C71.127 767.093 70.747 767.321 70.348 767.53C70.215 767.606 70.063 767.701 69.93 767.777C69.55 767.986 69.151 768.176 68.733 768.347C68.581 768.423 68.429 768.499 68.277 768.556C67.859 768.727 67.441 768.879 67.023 769.012C66.871 769.069 66.719 769.126 66.567 769.164C66.111 769.297 65.655 769.411 65.199 769.525C65.066 769.563 64.933 769.601 64.781 769.62C64.249 769.734 63.717 769.81 63.166 769.867C63.09 769.867 63.014 769.886 62.938 769.905C62.292 769.962 61.646 770 61 770C60.354 770 59.708 769.962 59.081 769.905C59.005 769.905 58.929 769.886 58.853 769.867C58.302 769.81 57.77 769.734 57.238 769.62C57.105 769.601 56.972 769.544 56.82 769.525C56.364 769.411 55.889 769.316 55.452 769.164C55.3 769.107 55.148 769.05 54.996 769.012C54.578 768.86 54.141 768.727 53.742 768.556C53.59 768.499 53.438 768.423 53.286 768.347C52.887 768.176 52.488 767.986 52.089 767.777C51.937 767.701 51.804 767.606 51.671 767.53C51.291 767.302 50.911 767.093 50.531 766.846C50.398 766.77 50.284 766.675 50.151 766.58C49.771 766.314 49.41 766.048 49.068 765.763C48.954 765.668 48.859 765.573 48.745 765.497C48.536 765.326 48.327 765.155 48.137 764.984C48.137 764.965 48.137 764.965 48.156 764.946C44.375 761.469 42 756.51 42 751ZM51.614 760.443C56.763 756.985 65.199 756.985 70.386 760.443C71.222 760.994 71.906 761.64 72.476 762.343C75.364 759.417 77.15 755.408 77.15 751C77.15 742.089 69.911 734.85 61 734.85C52.089 734.85 44.85 742.089 44.85 751C44.85 755.408 46.636 759.417 49.524 762.343C50.075 761.64 50.778 760.994 51.614 760.443Z" fill="#263B33" fill-opacity="0.8"/>
<path d="M61 741.366C64.933 741.366 68.125 744.558 68.125 748.491C68.125 752.348 65.104 755.483 61.095 755.597C61.038 755.597 60.962 755.597 60.924 755.597C60.886 755.597 60.829 755.597 60.791 755.597C60.772 755.597 60.753 755.597 60.753 755.597C56.915 755.464 53.894 752.348 53.875 748.491C53.875 744.558 57.067 741.366 61 741.366Z" fill="#263B33" fill-opacity="0.8"/>
</g>
<g filter="url(#filter4_d_225_627)">
<rect x="28" y="624" width="334" height="66" rx="20" fill="#FFFDF4"/>
<path d="M99.9141 651.041L95.207 664H93.2832L98.7031 649.781H99.9434L99.9141 651.041ZM103.859 664L99.1426 651.041L99.1133 649.781H100.354L105.793 664H103.859ZM103.615 658.736V660.279H95.627V658.736H103.615ZM112.766 657.35H109.162L109.143 655.836H112.414C112.954 655.836 113.426 655.745 113.83 655.562C114.234 655.38 114.546 655.12 114.768 654.781C114.995 654.436 115.109 654.026 115.109 653.551C115.109 653.03 115.008 652.607 114.807 652.281C114.611 651.949 114.309 651.708 113.898 651.559C113.495 651.402 112.98 651.324 112.355 651.324H109.582V664H107.697V649.781H112.355C113.085 649.781 113.736 649.856 114.309 650.006C114.882 650.149 115.367 650.377 115.764 650.689C116.167 650.995 116.473 651.386 116.682 651.861C116.89 652.337 116.994 652.906 116.994 653.57C116.994 654.156 116.844 654.687 116.545 655.162C116.245 655.631 115.829 656.015 115.295 656.314C114.768 656.614 114.149 656.806 113.439 656.891L112.766 657.35ZM112.678 664H108.42L109.484 662.467H112.678C113.277 662.467 113.785 662.363 114.201 662.154C114.624 661.946 114.947 661.653 115.168 661.275C115.389 660.891 115.5 660.439 115.5 659.918C115.5 659.391 115.406 658.935 115.217 658.551C115.028 658.167 114.732 657.87 114.328 657.662C113.924 657.454 113.404 657.35 112.766 657.35H110.08L110.1 655.836H113.771L114.172 656.383C114.855 656.441 115.435 656.637 115.91 656.969C116.385 657.294 116.747 657.711 116.994 658.219C117.248 658.727 117.375 659.286 117.375 659.898C117.375 660.784 117.18 661.533 116.789 662.145C116.405 662.75 115.861 663.212 115.158 663.531C114.455 663.844 113.628 664 112.678 664ZM128.742 659.479H130.617C130.52 660.377 130.262 661.181 129.846 661.891C129.429 662.6 128.84 663.163 128.078 663.58C127.316 663.99 126.366 664.195 125.227 664.195C124.393 664.195 123.635 664.039 122.951 663.727C122.274 663.414 121.691 662.971 121.203 662.398C120.715 661.819 120.337 661.126 120.07 660.318C119.81 659.505 119.68 658.6 119.68 657.604V656.188C119.68 655.191 119.81 654.29 120.07 653.482C120.337 652.669 120.718 651.972 121.213 651.393C121.714 650.813 122.316 650.367 123.02 650.055C123.723 649.742 124.514 649.586 125.393 649.586C126.467 649.586 127.375 649.788 128.117 650.191C128.859 650.595 129.436 651.155 129.846 651.871C130.262 652.581 130.52 653.404 130.617 654.342H128.742C128.651 653.678 128.482 653.108 128.234 652.633C127.987 652.151 127.635 651.78 127.18 651.52C126.724 651.259 126.128 651.129 125.393 651.129C124.761 651.129 124.204 651.249 123.723 651.49C123.247 651.731 122.847 652.073 122.521 652.516C122.202 652.958 121.962 653.489 121.799 654.107C121.636 654.726 121.555 655.413 121.555 656.168V657.604C121.555 658.3 121.626 658.954 121.77 659.566C121.919 660.178 122.144 660.715 122.443 661.178C122.743 661.64 123.124 662.005 123.586 662.271C124.048 662.532 124.595 662.662 125.227 662.662C126.027 662.662 126.665 662.535 127.141 662.281C127.616 662.027 127.974 661.663 128.215 661.188C128.462 660.712 128.638 660.143 128.742 659.479ZM139.367 649.781L142.785 655.23L146.203 649.781H148.4L143.908 656.822L148.508 664H146.291L142.785 658.443L139.279 664H137.062L141.662 656.822L137.17 649.781H139.367ZM151.34 649.781L155.031 656.92L158.732 649.781H160.871L155.969 658.688V664H154.084V658.688L149.182 649.781H151.34ZM172.238 662.467V664H162.609V662.467H172.238ZM171.926 651.148L163.059 664H161.896V662.594L170.754 649.781H171.926V651.148ZM171.125 649.781V651.324H162.023V649.781H171.125Z" fill="#263B33" fill-opacity="0.8"/>
<path d="M42 657C42 646.531 50.531 638 61 638C71.469 638 80 646.531 80 657C80 662.51 77.625 667.469 73.863 670.946C73.863 670.965 73.863 670.965 73.882 670.984C73.692 671.174 73.464 671.326 73.274 671.497C73.16 671.592 73.065 671.687 72.951 671.763C72.609 672.048 72.229 672.314 71.868 672.58C71.735 672.675 71.621 672.751 71.488 672.846C71.127 673.093 70.747 673.321 70.348 673.53C70.215 673.606 70.063 673.701 69.93 673.777C69.55 673.986 69.151 674.176 68.733 674.347C68.581 674.423 68.429 674.499 68.277 674.556C67.859 674.727 67.441 674.879 67.023 675.012C66.871 675.069 66.719 675.126 66.567 675.164C66.111 675.297 65.655 675.411 65.199 675.525C65.066 675.563 64.933 675.601 64.781 675.62C64.249 675.734 63.717 675.81 63.166 675.867C63.09 675.867 63.014 675.886 62.938 675.905C62.292 675.962 61.646 676 61 676C60.354 676 59.708 675.962 59.081 675.905C59.005 675.905 58.929 675.886 58.853 675.867C58.302 675.81 57.77 675.734 57.238 675.62C57.105 675.601 56.972 675.544 56.82 675.525C56.364 675.411 55.889 675.316 55.452 675.164C55.3 675.107 55.148 675.05 54.996 675.012C54.578 674.86 54.141 674.727 53.742 674.556C53.59 674.499 53.438 674.423 53.286 674.347C52.887 674.176 52.488 673.986 52.089 673.777C51.937 673.701 51.804 673.606 51.671 673.53C51.291 673.302 50.911 673.093 50.531 672.846C50.398 672.77 50.284 672.675 50.151 672.58C49.771 672.314 49.41 672.048 49.068 671.763C48.954 671.668 48.859 671.573 48.745 671.497C48.536 671.326 48.327 671.155 48.137 670.984C48.137 670.965 48.137 670.965 48.156 670.946C44.375 667.469 42 662.51 42 657ZM51.614 666.443C56.763 662.985 65.199 662.985 70.386 666.443C71.222 666.994 71.906 667.64 72.476 668.343C75.364 665.417 77.15 661.408 77.15 657C77.15 648.089 69.911 640.85 61 640.85C52.089 640.85 44.85 648.089 44.85 657C44.85 661.408 46.636 665.417 49.524 668.343C50.075 667.64 50.778 666.994 51.614 666.443Z" fill="#263B33" fill-opacity="0.8"/>
<path d="M61 647.366C64.933 647.366 68.125 650.558 68.125 654.491C68.125 658.348 65.104 661.483 61.095 661.597C61.038 661.597 60.962 661.597 60.924 661.597C60.886 661.597 60.829 661.597 60.791 661.597C60.772 661.597 60.753 661.597 60.753 661.597C56.915 661.464 53.894 658.348 53.875 654.491C53.875 650.558 57.067 647.366 61 647.366Z" fill="#263B33" fill-opacity="0.8"/>
</g>
<g filter="url(#filter5_d_225_627)">
<rect x="28" y="530" width="334" height="66" rx="20" fill="#FFFDF4"/>
<path d="M99.9141 557.041L95.207 570H93.2832L98.7031 555.781H99.9434L99.9141 557.041ZM103.859 570L99.1426 557.041L99.1133 555.781H100.354L105.793 570H103.859ZM103.615 564.736V566.279H95.627V564.736H103.615ZM112.766 563.35H109.162L109.143 561.836H112.414C112.954 561.836 113.426 561.745 113.83 561.562C114.234 561.38 114.546 561.12 114.768 560.781C114.995 560.436 115.109 560.026 115.109 559.551C115.109 559.03 115.008 558.607 114.807 558.281C114.611 557.949 114.309 557.708 113.898 557.559C113.495 557.402 112.98 557.324 112.355 557.324H109.582V570H107.697V555.781H112.355C113.085 555.781 113.736 555.856 114.309 556.006C114.882 556.149 115.367 556.377 115.764 556.689C116.167 556.995 116.473 557.386 116.682 557.861C116.89 558.337 116.994 558.906 116.994 559.57C116.994 560.156 116.844 560.687 116.545 561.162C116.245 561.631 115.829 562.015 115.295 562.314C114.768 562.614 114.149 562.806 113.439 562.891L112.766 563.35ZM112.678 570H108.42L109.484 568.467H112.678C113.277 568.467 113.785 568.363 114.201 568.154C114.624 567.946 114.947 567.653 115.168 567.275C115.389 566.891 115.5 566.439 115.5 565.918C115.5 565.391 115.406 564.935 115.217 564.551C115.028 564.167 114.732 563.87 114.328 563.662C113.924 563.454 113.404 563.35 112.766 563.35H110.08L110.1 561.836H113.771L114.172 562.383C114.855 562.441 115.435 562.637 115.91 562.969C116.385 563.294 116.747 563.711 116.994 564.219C117.248 564.727 117.375 565.286 117.375 565.898C117.375 566.784 117.18 567.533 116.789 568.145C116.405 568.75 115.861 569.212 115.158 569.531C114.455 569.844 113.628 570 112.678 570ZM128.742 565.479H130.617C130.52 566.377 130.262 567.181 129.846 567.891C129.429 568.6 128.84 569.163 128.078 569.58C127.316 569.99 126.366 570.195 125.227 570.195C124.393 570.195 123.635 570.039 122.951 569.727C122.274 569.414 121.691 568.971 121.203 568.398C120.715 567.819 120.337 567.126 120.07 566.318C119.81 565.505 119.68 564.6 119.68 563.604V562.188C119.68 561.191 119.81 560.29 120.07 559.482C120.337 558.669 120.718 557.972 121.213 557.393C121.714 556.813 122.316 556.367 123.02 556.055C123.723 555.742 124.514 555.586 125.393 555.586C126.467 555.586 127.375 555.788 128.117 556.191C128.859 556.595 129.436 557.155 129.846 557.871C130.262 558.581 130.52 559.404 130.617 560.342H128.742C128.651 559.678 128.482 559.108 128.234 558.633C127.987 558.151 127.635 557.78 127.18 557.52C126.724 557.259 126.128 557.129 125.393 557.129C124.761 557.129 124.204 557.249 123.723 557.49C123.247 557.731 122.847 558.073 122.521 558.516C122.202 558.958 121.962 559.489 121.799 560.107C121.636 560.726 121.555 561.413 121.555 562.168V563.604C121.555 564.3 121.626 564.954 121.77 565.566C121.919 566.178 122.144 566.715 122.443 567.178C122.743 567.64 123.124 568.005 123.586 568.271C124.048 568.532 124.595 568.662 125.227 568.662C126.027 568.662 126.665 568.535 127.141 568.281C127.616 568.027 127.974 567.663 128.215 567.188C128.462 566.712 128.638 566.143 128.742 565.479ZM139.367 555.781L142.785 561.23L146.203 555.781H148.4L143.908 562.822L148.508 570H146.291L142.785 564.443L139.279 570H137.062L141.662 562.822L137.17 555.781H139.367ZM151.34 555.781L155.031 562.92L158.732 555.781H160.871L155.969 564.688V570H154.084V564.688L149.182 555.781H151.34ZM172.238 568.467V570H162.609V568.467H172.238ZM171.926 557.148L163.059 570H161.896V568.594L170.754 555.781H171.926V557.148ZM171.125 555.781V557.324H162.023V555.781H171.125Z" fill="#263B33" fill-opacity="0.8"/>
<path d="M42 563C42 552.531 50.531 544 61 544C71.469 544 80 552.531 80 563C80 568.51 77.625 573.469 73.863 576.946C73.863 576.965 73.863 576.965 73.882 576.984C73.692 577.174 73.464 577.326 73.274 577.497C73.16 577.592 73.065 577.687 72.951 577.763C72.609 578.048 72.229 578.314 71.868 578.58C71.735 578.675 71.621 578.751 71.488 578.846C71.127 579.093 70.747 579.321 70.348 579.53C70.215 579.606 70.063 579.701 69.93 579.777C69.55 579.986 69.151 580.176 68.733 580.347C68.581 580.423 68.429 580.499 68.277 580.556C67.859 580.727 67.441 580.879 67.023 581.012C66.871 581.069 66.719 581.126 66.567 581.164C66.111 581.297 65.655 581.411 65.199 581.525C65.066 581.563 64.933 581.601 64.781 581.62C64.249 581.734 63.717 581.81 63.166 581.867C63.09 581.867 63.014 581.886 62.938 581.905C62.292 581.962 61.646 582 61 582C60.354 582 59.708 581.962 59.081 581.905C59.005 581.905 58.929 581.886 58.853 581.867C58.302 581.81 57.77 581.734 57.238 581.62C57.105 581.601 56.972 581.544 56.82 581.525C56.364 581.411 55.889 581.316 55.452 581.164C55.3 581.107 55.148 581.05 54.996 581.012C54.578 580.86 54.141 580.727 53.742 580.556C53.59 580.499 53.438 580.423 53.286 580.347C52.887 580.176 52.488 579.986 52.089 579.777C51.937 579.701 51.804 579.606 51.671 579.53C51.291 579.302 50.911 579.093 50.531 578.846C50.398 578.77 50.284 578.675 50.151 578.58C49.771 578.314 49.41 578.048 49.068 577.763C48.954 577.668 48.859 577.573 48.745 577.497C48.536 577.326 48.327 577.155 48.137 576.984C48.137 576.965 48.137 576.965 48.156 576.946C44.375 573.469 42 568.51 42 563ZM51.614 572.443C56.763 568.985 65.199 568.985 70.386 572.443C71.222 572.994 71.906 573.64 72.476 574.343C75.364 571.417 77.15 567.408 77.15 563C77.15 554.089 69.911 546.85 61 546.85C52.089 546.85 44.85 554.089 44.85 563C44.85 567.408 46.636 571.417 49.524 574.343C50.075 573.64 50.778 572.994 51.614 572.443Z" fill="#263B33" fill-opacity="0.8"/>
<path d="M61 553.366C64.933 553.366 68.125 556.558 68.125 560.491C68.125 564.348 65.104 567.483 61.095 567.597C61.038 567.597 60.962 567.597 60.924 567.597C60.886 567.597 60.829 567.597 60.791 567.597C60.772 567.597 60.753 567.597 60.753 567.597C56.915 567.464 53.894 564.348 53.875 560.491C53.875 556.558 57.067 553.366 61 553.366Z" fill="#263B33" fill-opacity="0.8"/>
</g>
<path opacity="0.35" d="M351.5 20C351.5 18.8034 352.47 17.8334 353.667 17.8334H370.333C371.53 17.8334 372.5 18.8034 372.5 20V26C372.5 27.1967 371.53 28.1667 370.333 28.1667H353.667C352.47 28.1667 351.5 27.1967 351.5 26V20Z" stroke="black"/>
<path opacity="0.4" d="M374 21V25C374.805 24.6613 375.328 23.8732 375.328 23C375.328 22.1269 374.805 21.3388 374 21Z" fill="black"/>
<path d="M353 20.6667C353 19.9303 353.597 19.3334 354.333 19.3334H369.667C370.403 19.3334 371 19.9303 371 20.6667V25.3334C371 26.0698 370.403 26.6667 369.667 26.6667H354.333C353.597 26.6667 353 26.0698 353 25.3334V20.6667Z" fill="black"/>
<path fill-rule="evenodd" clip-rule="evenodd" d="M338.33 19.608C340.546 19.6081 342.677 20.4596 344.283 21.9863C344.404 22.1042 344.597 22.1027 344.716 21.983L345.872 20.8163C345.933 20.7556 345.966 20.6734 345.966 20.5878C345.965 20.5022 345.931 20.4204 345.87 20.3603C341.655 16.3208 335.005 16.3208 330.79 20.3603C330.729 20.4203 330.694 20.5021 330.693 20.5877C330.693 20.6733 330.726 20.7556 330.787 20.8163L331.943 21.983C332.062 22.1029 332.255 22.1044 332.376 21.9863C333.982 20.4595 336.114 19.608 338.33 19.608ZM338.33 23.4037C339.547 23.4036 340.721 23.8561 341.624 24.6733C341.746 24.7893 341.938 24.7868 342.057 24.6677L343.212 23.501C343.273 23.4398 343.307 23.3568 343.306 23.2705C343.305 23.1843 343.269 23.102 343.207 23.042C340.459 20.4856 336.203 20.4856 333.455 23.042C333.393 23.102 333.357 23.1843 333.357 23.2706C333.356 23.3569 333.39 23.4399 333.451 23.501L334.605 24.6677C334.724 24.7868 334.916 24.7893 335.038 24.6733C335.94 23.8567 337.113 23.4042 338.33 23.4037ZM340.643 25.9575C340.645 26.044 340.611 26.1274 340.549 26.188L338.552 28.2037C338.493 28.2629 338.413 28.2963 338.33 28.2963C338.247 28.2963 338.167 28.2629 338.108 28.2037L336.111 26.188C336.049 26.1274 336.015 26.0439 336.017 25.9574C336.019 25.8709 336.056 25.789 336.12 25.731C337.396 24.6521 339.264 24.6521 340.54 25.731C340.604 25.7891 340.641 25.871 340.643 25.9575Z" fill="black"/>
<path fill-rule="evenodd" clip-rule="evenodd" d="M324.667 17.6666H323.667C323.114 17.6666 322.667 18.1143 322.667 18.6666V27.3333C322.667 27.8856 323.114 28.3333 323.667 28.3333H324.667C325.219 28.3333 325.667 27.8856 325.667 27.3333V18.6666C325.667 18.1143 325.219 17.6666 324.667 17.6666ZM319 20H320C320.552 20 321 20.4477 321 21V27.3333C321 27.8856 320.552 28.3333 320 28.3333H319C318.448 28.3333 318 27.8856 318 27.3333V21C318 20.4477 318.448 20 319 20ZM315.333 22.3333H314.333C313.781 22.3333 313.333 22.781 313.333 23.3333V27.3333C313.333 27.8856 313.781 28.3333 314.333 28.3333H315.333C315.885 28.3333 316.333 27.8856 316.333 27.3333V23.3333C316.333 22.781 315.885 22.3333 315.333 22.3333ZM310.667 24.3333H309.667C309.114 24.3333 308.667 24.781 308.667 25.3333V27.3333C308.667 27.8856 309.114 28.3333 309.667 28.3333H310.667C311.219 28.3333 311.667 27.8856 311.667 27.3333V25.3333C311.667 24.781 311.219 24.3333 310.667 24.3333Z" fill="black"/>
<path d="M36.3208 28.2563C39.0088 28.2563 40.6055 26.1543 40.6055 22.5947C40.6055 21.2544 40.3491 20.1265 39.8584 19.2549C39.1479 17.8999 37.9248 17.1675 36.3794 17.1675C34.0796 17.1675 32.4536 18.7129 32.4536 20.8809C32.4536 22.917 33.9185 24.3965 35.9326 24.3965C37.1704 24.3965 38.1738 23.8179 38.6719 22.8145H38.6938C38.6938 22.8145 38.7231 22.8145 38.7305 22.8145C38.7451 22.8145 38.7964 22.8145 38.7964 22.8145C38.7964 25.2314 37.8809 26.6743 36.3354 26.6743C35.4272 26.6743 34.7241 26.1763 34.4824 25.3779H32.6001C32.915 27.1138 34.3872 28.2563 36.3208 28.2563ZM36.3867 22.895C35.1709 22.895 34.3066 22.0308 34.3066 20.8223C34.3066 19.6431 35.2148 18.7422 36.394 18.7422C37.5732 18.7422 38.4814 19.6577 38.4814 20.8516C38.4814 22.0308 37.5952 22.895 36.3867 22.895Z" fill="black"/>
<path d="M43.6966 28.1538C44.3924 28.1538 44.8685 27.6558 44.8685 26.9966C44.8685 26.3301 44.3924 25.8394 43.6966 25.8394C43.0081 25.8394 42.5247 26.3301 42.5247 26.9966C42.5247 27.6558 43.0081 28.1538 43.6966 28.1538ZM43.6966 22.6606C44.3924 22.6606 44.8685 22.1699 44.8685 21.5107C44.8685 20.8442 44.3924 20.3535 43.6966 20.3535C43.0081 20.3535 42.5247 20.8442 42.5247 21.5107C42.5247 22.1699 43.0081 22.6606 43.6966 22.6606Z" fill="black"/>
<path d="M51.7242 28H53.5333V26.0298H54.9615V24.4331H53.5333V17.4312H50.8673C48.9996 20.2437 47.5128 22.5947 46.5606 24.3452V26.0298H51.7242V28ZM48.3111 24.3672C49.5416 22.1992 50.6402 20.4634 51.651 18.9692H51.7535V24.4771H48.3111V24.3672Z" fill="black"/>
<path d="M58.9901 28H60.8798V17.4312H58.9975L56.2362 19.3647V21.1812L58.8656 19.3354H58.9901V28Z" fill="black"/>
<path d="M56.6006 103.984V131H51.0527V103.984H56.6006ZM66.7129 115.21V131H61.3691V110.924H66.3789L66.7129 115.21ZM65.9336 120.257H64.4863C64.4863 118.772 64.6781 117.437 65.0615 116.249C65.445 115.049 65.9831 114.029 66.6758 113.188C67.3685 112.334 68.1911 111.685 69.1436 111.239C70.1084 110.782 71.1846 110.553 72.3721 110.553C73.3122 110.553 74.1719 110.689 74.9512 110.961C75.7305 111.233 76.3984 111.666 76.9551 112.26C77.5241 112.854 77.957 113.639 78.2539 114.616C78.5632 115.593 78.7178 116.787 78.7178 118.197V131H73.3369V118.179C73.3369 117.288 73.2132 116.595 72.9658 116.101C72.7184 115.606 72.3535 115.259 71.8711 115.062C71.401 114.851 70.8197 114.746 70.127 114.746C69.4095 114.746 68.7848 114.888 68.2529 115.173C67.7334 115.457 67.3005 115.853 66.9541 116.36C66.6201 116.855 66.3665 117.437 66.1934 118.104C66.0202 118.772 65.9336 119.49 65.9336 120.257ZM92.6152 110.924V114.709H80.9258V110.924H92.6152ZM83.8203 105.97H89.1641V124.951C89.1641 125.533 89.2383 125.978 89.3867 126.287C89.5475 126.596 89.7826 126.813 90.0918 126.937C90.401 127.048 90.7907 127.104 91.2607 127.104C91.5947 127.104 91.8916 127.091 92.1514 127.066C92.4235 127.029 92.6523 126.992 92.8379 126.955L92.8564 130.889C92.3988 131.037 91.904 131.155 91.3721 131.241C90.8402 131.328 90.2526 131.371 89.6094 131.371C88.4342 131.371 87.4076 131.179 86.5293 130.796C85.6634 130.4 84.9954 129.769 84.5254 128.903C84.0553 128.037 83.8203 126.899 83.8203 125.489V105.97ZM104.898 131.371C103.34 131.371 101.942 131.124 100.705 130.629C99.4681 130.122 98.4167 129.423 97.5508 128.532C96.6973 127.642 96.0417 126.609 95.584 125.434C95.1263 124.246 94.8975 122.984 94.8975 121.648V120.906C94.8975 119.385 95.1139 117.993 95.5469 116.731C95.9798 115.47 96.5983 114.375 97.4023 113.447C98.2188 112.52 99.2083 111.808 100.371 111.313C101.534 110.806 102.845 110.553 104.305 110.553C105.727 110.553 106.989 110.788 108.09 111.258C109.191 111.728 110.112 112.396 110.854 113.262C111.609 114.128 112.178 115.167 112.562 116.379C112.945 117.579 113.137 118.915 113.137 120.387V122.613H97.1797V119.051H107.886V118.643C107.886 117.9 107.75 117.239 107.478 116.657C107.218 116.063 106.822 115.593 106.29 115.247C105.758 114.901 105.078 114.728 104.249 114.728C103.544 114.728 102.938 114.882 102.431 115.191C101.924 115.501 101.509 115.934 101.188 116.49C100.878 117.047 100.643 117.702 100.482 118.457C100.334 119.199 100.26 120.016 100.26 120.906V121.648C100.26 122.452 100.371 123.195 100.594 123.875C100.829 124.555 101.157 125.143 101.577 125.638C102.01 126.132 102.53 126.516 103.136 126.788C103.754 127.06 104.453 127.196 105.232 127.196C106.197 127.196 107.094 127.011 107.923 126.64C108.764 126.256 109.488 125.681 110.094 124.914L112.691 127.734C112.271 128.34 111.696 128.922 110.966 129.479C110.248 130.035 109.382 130.493 108.368 130.852C107.354 131.198 106.197 131.371 104.898 131.371ZM121.523 115.303V131H116.18V110.924H121.208L121.523 115.303ZM127.572 110.794L127.479 115.748C127.22 115.711 126.904 115.68 126.533 115.655C126.174 115.618 125.847 115.6 125.55 115.6C124.795 115.6 124.14 115.699 123.583 115.896C123.039 116.082 122.581 116.36 122.21 116.731C121.851 117.103 121.579 117.554 121.394 118.086C121.22 118.618 121.121 119.224 121.097 119.904L120.021 119.57C120.021 118.271 120.15 117.078 120.41 115.989C120.67 114.888 121.047 113.93 121.542 113.113C122.049 112.297 122.668 111.666 123.397 111.221C124.127 110.775 124.962 110.553 125.902 110.553C126.199 110.553 126.502 110.577 126.812 110.627C127.121 110.664 127.374 110.72 127.572 110.794ZM138.965 131.371C137.406 131.371 136.008 131.124 134.771 130.629C133.535 130.122 132.483 129.423 131.617 128.532C130.764 127.642 130.108 126.609 129.65 125.434C129.193 124.246 128.964 122.984 128.964 121.648V120.906C128.964 119.385 129.18 117.993 129.613 116.731C130.046 115.47 130.665 114.375 131.469 113.447C132.285 112.52 133.275 111.808 134.438 111.313C135.6 110.806 136.911 110.553 138.371 110.553C139.794 110.553 141.055 110.788 142.156 111.258C143.257 111.728 144.179 112.396 144.921 113.262C145.675 114.128 146.244 115.167 146.628 116.379C147.011 117.579 147.203 118.915 147.203 120.387V122.613H131.246V119.051H141.952V118.643C141.952 117.9 141.816 117.239 141.544 116.657C141.284 116.063 140.888 115.593 140.356 115.247C139.825 114.901 139.144 114.728 138.315 114.728C137.61 114.728 137.004 114.882 136.497 115.191C135.99 115.501 135.576 115.934 135.254 116.49C134.945 117.047 134.71 117.702 134.549 118.457C134.4 119.199 134.326 120.016 134.326 120.906V121.648C134.326 122.452 134.438 123.195 134.66 123.875C134.895 124.555 135.223 125.143 135.644 125.638C136.076 126.132 136.596 126.516 137.202 126.788C137.821 127.06 138.52 127.196 139.299 127.196C140.264 127.196 141.16 127.011 141.989 126.64C142.83 126.256 143.554 125.681 144.16 124.914L146.758 127.734C146.337 128.34 145.762 128.922 145.032 129.479C144.315 130.035 143.449 130.493 142.435 130.852C141.42 131.198 140.264 131.371 138.965 131.371ZM161.101 125.452C161.101 125.069 160.989 124.722 160.767 124.413C160.544 124.104 160.13 123.819 159.523 123.56C158.93 123.287 158.07 123.04 156.944 122.817C155.93 122.595 154.984 122.316 154.105 121.982C153.24 121.636 152.485 121.222 151.842 120.739C151.211 120.257 150.716 119.688 150.357 119.032C149.999 118.364 149.819 117.604 149.819 116.75C149.819 115.909 149.999 115.117 150.357 114.375C150.729 113.633 151.254 112.977 151.935 112.408C152.627 111.827 153.468 111.375 154.458 111.054C155.46 110.72 156.586 110.553 157.835 110.553C159.579 110.553 161.076 110.831 162.325 111.388C163.587 111.944 164.552 112.711 165.22 113.688C165.9 114.653 166.24 115.754 166.24 116.991H160.896C160.896 116.472 160.785 116.008 160.562 115.6C160.352 115.179 160.018 114.851 159.561 114.616C159.115 114.369 158.534 114.245 157.816 114.245C157.223 114.245 156.709 114.35 156.276 114.561C155.843 114.758 155.509 115.031 155.274 115.377C155.052 115.711 154.94 116.082 154.94 116.49C154.94 116.799 155.002 117.078 155.126 117.325C155.262 117.56 155.479 117.777 155.775 117.975C156.072 118.173 156.456 118.358 156.926 118.531C157.408 118.692 158.002 118.84 158.707 118.977C160.154 119.273 161.447 119.663 162.585 120.146C163.723 120.616 164.626 121.259 165.294 122.075C165.962 122.879 166.296 123.937 166.296 125.248C166.296 126.139 166.098 126.955 165.702 127.697C165.306 128.439 164.737 129.089 163.995 129.646C163.253 130.19 162.362 130.617 161.323 130.926C160.297 131.223 159.14 131.371 157.854 131.371C155.986 131.371 154.402 131.037 153.104 130.369C151.817 129.701 150.84 128.854 150.172 127.827C149.516 126.788 149.188 125.724 149.188 124.636H154.254C154.279 125.366 154.464 125.953 154.811 126.398C155.169 126.844 155.621 127.165 156.165 127.363C156.722 127.561 157.322 127.66 157.965 127.66C158.658 127.66 159.233 127.567 159.69 127.382C160.148 127.184 160.494 126.924 160.729 126.603C160.977 126.269 161.101 125.885 161.101 125.452ZM179.6 110.924V114.709H167.91V110.924H179.6ZM170.805 105.97H176.148V124.951C176.148 125.533 176.223 125.978 176.371 126.287C176.532 126.596 176.767 126.813 177.076 126.937C177.385 127.048 177.775 127.104 178.245 127.104C178.579 127.104 178.876 127.091 179.136 127.066C179.408 127.029 179.637 126.992 179.822 126.955L179.841 130.889C179.383 131.037 178.888 131.155 178.356 131.241C177.825 131.328 177.237 131.371 176.594 131.371C175.419 131.371 174.392 131.179 173.514 130.796C172.648 130.4 171.98 129.769 171.51 128.903C171.04 128.037 170.805 126.899 170.805 125.489V105.97ZM191.883 131.371C190.324 131.371 188.926 131.124 187.689 130.629C186.452 130.122 185.401 129.423 184.535 128.532C183.682 127.642 183.026 126.609 182.568 125.434C182.111 124.246 181.882 122.984 181.882 121.648V120.906C181.882 119.385 182.098 117.993 182.531 116.731C182.964 115.47 183.583 114.375 184.387 113.447C185.203 112.52 186.193 111.808 187.355 111.313C188.518 110.806 189.829 110.553 191.289 110.553C192.712 110.553 193.973 110.788 195.074 111.258C196.175 111.728 197.097 112.396 197.839 113.262C198.593 114.128 199.162 115.167 199.546 116.379C199.929 117.579 200.121 118.915 200.121 120.387V122.613H184.164V119.051H194.87V118.643C194.87 117.9 194.734 117.239 194.462 116.657C194.202 116.063 193.806 115.593 193.274 115.247C192.743 114.901 192.062 114.728 191.233 114.728C190.528 114.728 189.922 114.882 189.415 115.191C188.908 115.501 188.493 115.934 188.172 116.49C187.863 117.047 187.628 117.702 187.467 118.457C187.318 119.199 187.244 120.016 187.244 120.906V121.648C187.244 122.452 187.355 123.195 187.578 123.875C187.813 124.555 188.141 125.143 188.562 125.638C188.994 126.132 189.514 126.516 190.12 126.788C190.739 127.06 191.438 127.196 192.217 127.196C193.182 127.196 194.078 127.011 194.907 126.64C195.748 126.256 196.472 125.681 197.078 124.914L199.676 127.734C199.255 128.34 198.68 128.922 197.95 129.479C197.233 130.035 196.367 130.493 195.353 130.852C194.338 131.198 193.182 131.371 191.883 131.371ZM215.021 126.621V102.5H220.401V131H215.559L215.021 126.621ZM202.329 121.203V120.813C202.329 119.28 202.502 117.888 202.849 116.639C203.195 115.377 203.702 114.295 204.37 113.392C205.038 112.489 205.861 111.79 206.838 111.295C207.815 110.8 208.928 110.553 210.178 110.553C211.353 110.553 212.38 110.8 213.258 111.295C214.148 111.79 214.903 112.495 215.521 113.41C216.152 114.313 216.66 115.383 217.043 116.62C217.426 117.845 217.705 119.187 217.878 120.646V121.5C217.705 122.898 217.426 124.197 217.043 125.396C216.66 126.596 216.152 127.648 215.521 128.551C214.903 129.441 214.148 130.134 213.258 130.629C212.367 131.124 211.328 131.371 210.141 131.371C208.891 131.371 207.778 131.118 206.801 130.61C205.836 130.103 205.02 129.392 204.352 128.477C203.696 127.561 203.195 126.485 202.849 125.248C202.502 124.011 202.329 122.663 202.329 121.203ZM207.673 120.813V121.203C207.673 122.032 207.735 122.805 207.858 123.522C207.994 124.24 208.211 124.877 208.508 125.434C208.817 125.978 209.213 126.405 209.695 126.714C210.19 127.011 210.79 127.159 211.495 127.159C212.41 127.159 213.165 126.955 213.759 126.547C214.353 126.126 214.804 125.551 215.113 124.821C215.435 124.091 215.62 123.25 215.67 122.298V119.867C215.633 119.088 215.521 118.389 215.336 117.771C215.163 117.14 214.903 116.602 214.557 116.156C214.223 115.711 213.802 115.365 213.295 115.117C212.8 114.87 212.213 114.746 211.532 114.746C210.84 114.746 210.246 114.907 209.751 115.229C209.256 115.538 208.854 115.965 208.545 116.509C208.248 117.053 208.025 117.696 207.877 118.438C207.741 119.168 207.673 119.96 207.673 120.813ZM234.373 103.984H244.448C246.514 103.984 248.289 104.294 249.773 104.912C251.27 105.531 252.421 106.446 253.225 107.658C254.029 108.87 254.431 110.361 254.431 112.13C254.431 113.577 254.183 114.82 253.688 115.859C253.206 116.886 252.52 117.746 251.629 118.438C250.751 119.119 249.718 119.663 248.53 120.071L246.768 120.999H238.01L237.973 116.657H244.485C245.463 116.657 246.273 116.484 246.916 116.138C247.559 115.791 248.042 115.309 248.363 114.69C248.697 114.072 248.864 113.354 248.864 112.538C248.864 111.672 248.703 110.924 248.382 110.293C248.06 109.662 247.572 109.18 246.916 108.846C246.26 108.512 245.438 108.345 244.448 108.345H239.939V131H234.373V103.984ZM249.477 131L243.316 118.958L249.198 118.921L255.433 130.74V131H249.477ZM264.023 110.924V131H258.661V110.924H264.023ZM258.327 105.691C258.327 104.912 258.599 104.269 259.144 103.762C259.688 103.255 260.418 103.001 261.333 103.001C262.236 103.001 262.96 103.255 263.504 103.762C264.061 104.269 264.339 104.912 264.339 105.691C264.339 106.471 264.061 107.114 263.504 107.621C262.96 108.128 262.236 108.382 261.333 108.382C260.418 108.382 259.688 108.128 259.144 107.621C258.599 107.114 258.327 106.471 258.327 105.691ZM280.296 126.621V102.5H285.677V131H280.834L280.296 126.621ZM267.604 121.203V120.813C267.604 119.28 267.778 117.888 268.124 116.639C268.47 115.377 268.978 114.295 269.646 113.392C270.313 112.489 271.136 111.79 272.113 111.295C273.09 110.8 274.204 110.553 275.453 110.553C276.628 110.553 277.655 110.8 278.533 111.295C279.424 111.79 280.178 112.495 280.797 113.41C281.428 114.313 281.935 115.383 282.318 116.62C282.702 117.845 282.98 119.187 283.153 120.646V121.5C282.98 122.898 282.702 124.197 282.318 125.396C281.935 126.596 281.428 127.648 280.797 128.551C280.178 129.441 279.424 130.134 278.533 130.629C277.643 131.124 276.604 131.371 275.416 131.371C274.167 131.371 273.053 131.118 272.076 130.61C271.111 130.103 270.295 129.392 269.627 128.477C268.971 127.561 268.47 126.485 268.124 125.248C267.778 124.011 267.604 122.663 267.604 121.203ZM272.948 120.813V121.203C272.948 122.032 273.01 122.805 273.134 123.522C273.27 124.24 273.486 124.877 273.783 125.434C274.092 125.978 274.488 126.405 274.971 126.714C275.465 127.011 276.065 127.159 276.771 127.159C277.686 127.159 278.44 126.955 279.034 126.547C279.628 126.126 280.079 125.551 280.389 124.821C280.71 124.091 280.896 123.25 280.945 122.298V119.867C280.908 119.088 280.797 118.389 280.611 117.771C280.438 117.14 280.178 116.602 279.832 116.156C279.498 115.711 279.077 115.365 278.57 115.117C278.076 114.87 277.488 114.746 276.808 114.746C276.115 114.746 275.521 114.907 275.026 115.229C274.532 115.538 274.13 115.965 273.82 116.509C273.523 117.053 273.301 117.696 273.152 118.438C273.016 119.168 272.948 119.96 272.948 120.813ZM299.092 131.371C297.533 131.371 296.135 131.124 294.898 130.629C293.661 130.122 292.61 129.423 291.744 128.532C290.891 127.642 290.235 126.609 289.777 125.434C289.32 124.246 289.091 122.984 289.091 121.648V120.906C289.091 119.385 289.307 117.993 289.74 116.731C290.173 115.47 290.792 114.375 291.596 113.447C292.412 112.52 293.402 111.808 294.564 111.313C295.727 110.806 297.038 110.553 298.498 110.553C299.921 110.553 301.182 110.788 302.283 111.258C303.384 111.728 304.306 112.396 305.048 113.262C305.802 114.128 306.371 115.167 306.755 116.379C307.138 117.579 307.33 118.915 307.33 120.387V122.613H291.373V119.051H302.079V118.643C302.079 117.9 301.943 117.239 301.671 116.657C301.411 116.063 301.015 115.593 300.483 115.247C299.951 114.901 299.271 114.728 298.442 114.728C297.737 114.728 297.131 114.882 296.624 115.191C296.117 115.501 295.702 115.934 295.381 116.49C295.072 117.047 294.837 117.702 294.676 118.457C294.527 119.199 294.453 120.016 294.453 120.906V121.648C294.453 122.452 294.564 123.195 294.787 123.875C295.022 124.555 295.35 125.143 295.771 125.638C296.203 126.132 296.723 126.516 297.329 126.788C297.948 127.06 298.646 127.196 299.426 127.196C300.391 127.196 301.287 127.011 302.116 126.64C302.957 126.256 303.681 125.681 304.287 124.914L306.885 127.734C306.464 128.34 305.889 128.922 305.159 129.479C304.442 130.035 303.576 130.493 302.562 130.852C301.547 131.198 300.391 131.371 299.092 131.371ZM315.717 115.303V131H310.373V110.924H315.401L315.717 115.303ZM321.766 110.794L321.673 115.748C321.413 115.711 321.098 115.68 320.727 115.655C320.368 115.618 320.04 115.6 319.743 115.6C318.989 115.6 318.333 115.699 317.776 115.896C317.232 116.082 316.774 116.36 316.403 116.731C316.045 117.103 315.772 117.554 315.587 118.086C315.414 118.618 315.315 119.224 315.29 119.904L314.214 119.57C314.214 118.271 314.344 117.078 314.604 115.989C314.863 114.888 315.241 113.93 315.735 113.113C316.243 112.297 316.861 111.666 317.591 111.221C318.321 110.775 319.156 110.553 320.096 110.553C320.393 110.553 320.696 110.577 321.005 110.627C321.314 110.664 321.568 110.72 321.766 110.794ZM335.144 125.452C335.144 125.069 335.032 124.722 334.81 124.413C334.587 124.104 334.173 123.819 333.566 123.56C332.973 123.287 332.113 123.04 330.987 122.817C329.973 122.595 329.027 122.316 328.148 121.982C327.283 121.636 326.528 121.222 325.885 120.739C325.254 120.257 324.759 119.688 324.4 119.032C324.042 118.364 323.862 117.604 323.862 116.75C323.862 115.909 324.042 115.117 324.4 114.375C324.771 113.633 325.297 112.977 325.978 112.408C326.67 111.827 327.511 111.375 328.501 111.054C329.503 110.72 330.629 110.553 331.878 110.553C333.622 110.553 335.119 110.831 336.368 111.388C337.63 111.944 338.595 112.711 339.263 113.688C339.943 114.653 340.283 115.754 340.283 116.991H334.939C334.939 116.472 334.828 116.008 334.605 115.6C334.395 115.179 334.061 114.851 333.604 114.616C333.158 114.369 332.577 114.245 331.859 114.245C331.266 114.245 330.752 114.35 330.319 114.561C329.886 114.758 329.552 115.031 329.317 115.377C329.095 115.711 328.983 116.082 328.983 116.49C328.983 116.799 329.045 117.078 329.169 117.325C329.305 117.56 329.521 117.777 329.818 117.975C330.115 118.173 330.499 118.358 330.969 118.531C331.451 118.692 332.045 118.84 332.75 118.977C334.197 119.273 335.49 119.663 336.628 120.146C337.766 120.616 338.669 121.259 339.337 122.075C340.005 122.879 340.339 123.937 340.339 125.248C340.339 126.139 340.141 126.955 339.745 127.697C339.349 128.439 338.78 129.089 338.038 129.646C337.296 130.19 336.405 130.617 335.366 130.926C334.34 131.223 333.183 131.371 331.896 131.371C330.029 131.371 328.445 131.037 327.146 130.369C325.86 129.701 324.883 128.854 324.215 127.827C323.559 126.788 323.231 125.724 323.231 124.636H328.297C328.322 125.366 328.507 125.953 328.854 126.398C329.212 126.844 329.664 127.165 330.208 127.363C330.765 127.561 331.365 127.66 332.008 127.66C332.701 127.66 333.276 127.567 333.733 127.382C334.191 127.184 334.537 126.924 334.772 126.603C335.02 126.269 335.144 125.885 335.144 125.452Z" fill="#263B33"/>
<path d="M75.8125 468.984H85.8877C87.9535 468.984 89.7285 469.294 91.2129 469.912C92.7096 470.531 93.86 471.446 94.6641 472.658C95.4681 473.87 95.8701 475.361 95.8701 477.13C95.8701 478.577 95.6227 479.82 95.1279 480.859C94.6455 481.886 93.959 482.746 93.0684 483.438C92.1901 484.119 91.1572 484.663 89.9697 485.071L88.207 485.999H79.4492L79.4121 481.657H85.9248C86.902 481.657 87.7122 481.484 88.3555 481.138C88.9987 480.791 89.4811 480.309 89.8027 479.69C90.1367 479.072 90.3037 478.354 90.3037 477.538C90.3037 476.672 90.1429 475.924 89.8213 475.293C89.4997 474.662 89.0111 474.18 88.3555 473.846C87.6999 473.512 86.8773 473.345 85.8877 473.345H81.3789V496H75.8125V468.984ZM90.916 496L84.7559 483.958L90.6377 483.921L96.8721 495.74V496H90.916ZM105.463 475.924V496H100.101V475.924H105.463ZM99.7666 470.691C99.7666 469.912 100.039 469.269 100.583 468.762C101.127 468.255 101.857 468.001 102.772 468.001C103.675 468.001 104.399 468.255 104.943 468.762C105.5 469.269 105.778 469.912 105.778 470.691C105.778 471.471 105.5 472.114 104.943 472.621C104.399 473.128 103.675 473.382 102.772 473.382C101.857 473.382 101.127 473.128 100.583 472.621C100.039 472.114 99.7666 471.471 99.7666 470.691ZM121.735 491.621V467.5H127.116V496H122.273L121.735 491.621ZM109.044 486.203V485.813C109.044 484.28 109.217 482.888 109.563 481.639C109.91 480.377 110.417 479.295 111.085 478.392C111.753 477.489 112.576 476.79 113.553 476.295C114.53 475.8 115.643 475.553 116.893 475.553C118.068 475.553 119.094 475.8 119.973 476.295C120.863 476.79 121.618 477.495 122.236 478.41C122.867 479.313 123.374 480.383 123.758 481.62C124.141 482.845 124.42 484.187 124.593 485.646V486.5C124.42 487.898 124.141 489.197 123.758 490.396C123.374 491.596 122.867 492.648 122.236 493.551C121.618 494.441 120.863 495.134 119.973 495.629C119.082 496.124 118.043 496.371 116.855 496.371C115.606 496.371 114.493 496.118 113.516 495.61C112.551 495.103 111.734 494.392 111.066 493.477C110.411 492.561 109.91 491.485 109.563 490.248C109.217 489.011 109.044 487.663 109.044 486.203ZM114.388 485.813V486.203C114.388 487.032 114.45 487.805 114.573 488.522C114.709 489.24 114.926 489.877 115.223 490.434C115.532 490.978 115.928 491.405 116.41 491.714C116.905 492.011 117.505 492.159 118.21 492.159C119.125 492.159 119.88 491.955 120.474 491.547C121.067 491.126 121.519 490.551 121.828 489.821C122.15 489.091 122.335 488.25 122.385 487.298V484.867C122.348 484.088 122.236 483.389 122.051 482.771C121.878 482.14 121.618 481.602 121.271 481.156C120.938 480.711 120.517 480.365 120.01 480.117C119.515 479.87 118.927 479.746 118.247 479.746C117.554 479.746 116.961 479.907 116.466 480.229C115.971 480.538 115.569 480.965 115.26 481.509C114.963 482.053 114.74 482.696 114.592 483.438C114.456 484.168 114.388 484.96 114.388 485.813ZM140.531 496.371C138.973 496.371 137.575 496.124 136.338 495.629C135.101 495.122 134.049 494.423 133.184 493.532C132.33 492.642 131.674 491.609 131.217 490.434C130.759 489.246 130.53 487.984 130.53 486.648V485.906C130.53 484.385 130.747 482.993 131.18 481.731C131.613 480.47 132.231 479.375 133.035 478.447C133.852 477.52 134.841 476.808 136.004 476.313C137.167 475.806 138.478 475.553 139.938 475.553C141.36 475.553 142.622 475.788 143.723 476.258C144.824 476.728 145.745 477.396 146.487 478.262C147.242 479.128 147.811 480.167 148.194 481.379C148.578 482.579 148.77 483.915 148.77 485.387V487.613H132.812V484.051H143.519V483.643C143.519 482.9 143.382 482.239 143.11 481.657C142.851 481.063 142.455 480.593 141.923 480.247C141.391 479.901 140.711 479.728 139.882 479.728C139.177 479.728 138.571 479.882 138.063 480.191C137.556 480.501 137.142 480.934 136.82 481.49C136.511 482.047 136.276 482.702 136.115 483.457C135.967 484.199 135.893 485.016 135.893 485.906V486.648C135.893 487.452 136.004 488.195 136.227 488.875C136.462 489.555 136.789 490.143 137.21 490.638C137.643 491.132 138.162 491.516 138.769 491.788C139.387 492.06 140.086 492.196 140.865 492.196C141.83 492.196 142.727 492.011 143.556 491.64C144.397 491.256 145.12 490.681 145.727 489.914L148.324 492.734C147.904 493.34 147.328 493.922 146.599 494.479C145.881 495.035 145.015 495.493 144.001 495.852C142.987 496.198 141.83 496.371 140.531 496.371ZM157.156 480.303V496H151.812V475.924H156.841L157.156 480.303ZM163.205 475.794L163.112 480.748C162.853 480.711 162.537 480.68 162.166 480.655C161.807 480.618 161.479 480.6 161.183 480.6C160.428 480.6 159.772 480.699 159.216 480.896C158.672 481.082 158.214 481.36 157.843 481.731C157.484 482.103 157.212 482.554 157.026 483.086C156.853 483.618 156.754 484.224 156.729 484.904L155.653 484.57C155.653 483.271 155.783 482.078 156.043 480.989C156.303 479.888 156.68 478.93 157.175 478.113C157.682 477.297 158.3 476.666 159.03 476.221C159.76 475.775 160.595 475.553 161.535 475.553C161.832 475.553 162.135 475.577 162.444 475.627C162.754 475.664 163.007 475.72 163.205 475.794ZM176.583 490.452C176.583 490.069 176.472 489.722 176.249 489.413C176.026 489.104 175.612 488.819 175.006 488.56C174.412 488.287 173.552 488.04 172.427 487.817C171.412 487.595 170.466 487.316 169.588 486.982C168.722 486.636 167.967 486.222 167.324 485.739C166.693 485.257 166.199 484.688 165.84 484.032C165.481 483.364 165.302 482.604 165.302 481.75C165.302 480.909 165.481 480.117 165.84 479.375C166.211 478.633 166.737 477.977 167.417 477.408C168.11 476.827 168.951 476.375 169.94 476.054C170.942 475.72 172.068 475.553 173.317 475.553C175.062 475.553 176.558 475.831 177.808 476.388C179.069 476.944 180.034 477.711 180.702 478.688C181.382 479.653 181.723 480.754 181.723 481.991H176.379C176.379 481.472 176.268 481.008 176.045 480.6C175.835 480.179 175.501 479.851 175.043 479.616C174.598 479.369 174.016 479.245 173.299 479.245C172.705 479.245 172.192 479.35 171.759 479.561C171.326 479.758 170.992 480.031 170.757 480.377C170.534 480.711 170.423 481.082 170.423 481.49C170.423 481.799 170.485 482.078 170.608 482.325C170.744 482.56 170.961 482.777 171.258 482.975C171.555 483.173 171.938 483.358 172.408 483.531C172.891 483.692 173.484 483.84 174.189 483.977C175.637 484.273 176.929 484.663 178.067 485.146C179.205 485.616 180.108 486.259 180.776 487.075C181.444 487.879 181.778 488.937 181.778 490.248C181.778 491.139 181.58 491.955 181.185 492.697C180.789 493.439 180.22 494.089 179.478 494.646C178.735 495.19 177.845 495.617 176.806 495.926C175.779 496.223 174.622 496.371 173.336 496.371C171.468 496.371 169.885 496.037 168.586 495.369C167.299 494.701 166.322 493.854 165.654 492.827C164.999 491.788 164.671 490.724 164.671 489.636H169.736C169.761 490.366 169.947 490.953 170.293 491.398C170.652 491.844 171.103 492.165 171.647 492.363C172.204 492.561 172.804 492.66 173.447 492.66C174.14 492.66 174.715 492.567 175.173 492.382C175.631 492.184 175.977 491.924 176.212 491.603C176.459 491.269 176.583 490.885 176.583 490.452ZM205.974 487.706V468.984H211.521V487.706C211.521 489.512 211.126 491.064 210.334 492.363C209.542 493.65 208.46 494.639 207.087 495.332C205.726 496.025 204.192 496.371 202.485 496.371C200.716 496.371 199.152 496.074 197.791 495.48C196.43 494.887 195.36 493.978 194.581 492.753C193.802 491.516 193.412 489.951 193.412 488.059H198.997C198.997 489.048 199.133 489.834 199.405 490.415C199.69 490.996 200.092 491.411 200.611 491.658C201.131 491.906 201.756 492.029 202.485 492.029C203.19 492.029 203.803 491.862 204.322 491.528C204.842 491.194 205.244 490.706 205.528 490.062C205.825 489.419 205.974 488.634 205.974 487.706ZM215.084 486.166V485.776C215.084 484.304 215.294 482.95 215.715 481.713C216.135 480.464 216.748 479.381 217.552 478.466C218.356 477.55 219.345 476.839 220.521 476.332C221.696 475.812 223.044 475.553 224.565 475.553C226.087 475.553 227.441 475.812 228.629 476.332C229.816 476.839 230.812 477.55 231.616 478.466C232.433 479.381 233.051 480.464 233.472 481.713C233.892 482.95 234.103 484.304 234.103 485.776V486.166C234.103 487.626 233.892 488.98 233.472 490.229C233.051 491.466 232.433 492.549 231.616 493.477C230.812 494.392 229.823 495.103 228.647 495.61C227.472 496.118 226.124 496.371 224.603 496.371C223.081 496.371 221.727 496.118 220.539 495.61C219.364 495.103 218.368 494.392 217.552 493.477C216.748 492.549 216.135 491.466 215.715 490.229C215.294 488.98 215.084 487.626 215.084 486.166ZM220.428 485.776V486.166C220.428 487.007 220.502 487.793 220.65 488.522C220.799 489.252 221.034 489.896 221.355 490.452C221.689 490.996 222.122 491.423 222.654 491.732C223.186 492.042 223.836 492.196 224.603 492.196C225.345 492.196 225.982 492.042 226.514 491.732C227.046 491.423 227.472 490.996 227.794 490.452C228.116 489.896 228.351 489.252 228.499 488.522C228.66 487.793 228.74 487.007 228.74 486.166V485.776C228.74 484.96 228.66 484.193 228.499 483.476C228.351 482.746 228.109 482.103 227.775 481.546C227.454 480.977 227.027 480.532 226.495 480.21C225.963 479.888 225.32 479.728 224.565 479.728C223.811 479.728 223.168 479.888 222.636 480.21C222.116 480.532 221.689 480.977 221.355 481.546C221.034 482.103 220.799 482.746 220.65 483.476C220.502 484.193 220.428 484.96 220.428 485.776ZM243.027 475.924V496H237.665V475.924H243.027ZM237.331 470.691C237.331 469.912 237.603 469.269 238.147 468.762C238.692 468.255 239.422 468.001 240.337 468.001C241.24 468.001 241.964 468.255 242.508 468.762C243.064 469.269 243.343 469.912 243.343 470.691C243.343 471.471 243.064 472.114 242.508 472.621C241.964 473.128 241.24 473.382 240.337 473.382C239.422 473.382 238.692 473.128 238.147 472.621C237.603 472.114 237.331 471.471 237.331 470.691ZM252.676 480.21V496H247.332V475.924H252.342L252.676 480.21ZM251.896 485.257H250.449C250.449 483.772 250.641 482.437 251.024 481.249C251.408 480.049 251.946 479.029 252.639 478.188C253.331 477.334 254.154 476.685 255.106 476.239C256.071 475.782 257.147 475.553 258.335 475.553C259.275 475.553 260.135 475.689 260.914 475.961C261.693 476.233 262.361 476.666 262.918 477.26C263.487 477.854 263.92 478.639 264.217 479.616C264.526 480.593 264.681 481.787 264.681 483.197V496H259.3V483.179C259.3 482.288 259.176 481.595 258.929 481.101C258.681 480.606 258.316 480.259 257.834 480.062C257.364 479.851 256.783 479.746 256.09 479.746C255.372 479.746 254.748 479.888 254.216 480.173C253.696 480.457 253.263 480.853 252.917 481.36C252.583 481.855 252.329 482.437 252.156 483.104C251.983 483.772 251.896 484.49 251.896 485.257ZM277.984 496.371C276.426 496.371 275.028 496.124 273.791 495.629C272.554 495.122 271.503 494.423 270.637 493.532C269.783 492.642 269.128 491.609 268.67 490.434C268.212 489.246 267.983 487.984 267.983 486.648V485.906C267.983 484.385 268.2 482.993 268.633 481.731C269.066 480.47 269.684 479.375 270.488 478.447C271.305 477.52 272.294 476.808 273.457 476.313C274.62 475.806 275.931 475.553 277.391 475.553C278.813 475.553 280.075 475.788 281.176 476.258C282.277 476.728 283.198 477.396 283.94 478.262C284.695 479.128 285.264 480.167 285.647 481.379C286.031 482.579 286.223 483.915 286.223 485.387V487.613H270.266V484.051H280.972V483.643C280.972 482.9 280.836 482.239 280.563 481.657C280.304 481.063 279.908 480.593 279.376 480.247C278.844 479.901 278.164 479.728 277.335 479.728C276.63 479.728 276.024 479.882 275.517 480.191C275.009 480.501 274.595 480.934 274.273 481.49C273.964 482.047 273.729 482.702 273.568 483.457C273.42 484.199 273.346 485.016 273.346 485.906V486.648C273.346 487.452 273.457 488.195 273.68 488.875C273.915 489.555 274.243 490.143 274.663 490.638C275.096 491.132 275.616 491.516 276.222 491.788C276.84 492.06 277.539 492.196 278.318 492.196C279.283 492.196 280.18 492.011 281.009 491.64C281.85 491.256 282.574 490.681 283.18 489.914L285.777 492.734C285.357 493.34 284.782 493.922 284.052 494.479C283.334 495.035 282.468 495.493 281.454 495.852C280.44 496.198 279.283 496.371 277.984 496.371ZM301.122 491.621V467.5H306.503V496H301.66L301.122 491.621ZM288.431 486.203V485.813C288.431 484.28 288.604 482.888 288.95 481.639C289.297 480.377 289.804 479.295 290.472 478.392C291.14 477.489 291.962 476.79 292.939 476.295C293.917 475.8 295.03 475.553 296.279 475.553C297.454 475.553 298.481 475.8 299.359 476.295C300.25 476.79 301.005 477.495 301.623 478.41C302.254 479.313 302.761 480.383 303.145 481.62C303.528 482.845 303.806 484.187 303.979 485.646V486.5C303.806 487.898 303.528 489.197 303.145 490.396C302.761 491.596 302.254 492.648 301.623 493.551C301.005 494.441 300.25 495.134 299.359 495.629C298.469 496.124 297.43 496.371 296.242 496.371C294.993 496.371 293.88 496.118 292.902 495.61C291.938 495.103 291.121 494.392 290.453 493.477C289.798 492.561 289.297 491.485 288.95 490.248C288.604 489.011 288.431 487.663 288.431 486.203ZM293.774 485.813V486.203C293.774 487.032 293.836 487.805 293.96 488.522C294.096 489.24 294.312 489.877 294.609 490.434C294.919 490.978 295.314 491.405 295.797 491.714C296.292 492.011 296.892 492.159 297.597 492.159C298.512 492.159 299.267 491.955 299.86 491.547C300.454 491.126 300.906 490.551 301.215 489.821C301.536 489.091 301.722 488.25 301.771 487.298V484.867C301.734 484.088 301.623 483.389 301.438 482.771C301.264 482.14 301.005 481.602 300.658 481.156C300.324 480.711 299.904 480.365 299.396 480.117C298.902 479.87 298.314 479.746 297.634 479.746C296.941 479.746 296.347 479.907 295.853 480.229C295.358 480.538 294.956 480.965 294.646 481.509C294.35 482.053 294.127 482.696 293.979 483.438C293.842 484.168 293.774 484.96 293.774 485.813Z" fill="#263B33"/>
<path fill-rule="evenodd" clip-rule="evenodd" d="M45 47C37.268 47 31 53.268 31 61C31 68.732 37.268 75 45 75C52.732 75 59 68.732 59 61C59 53.268 52.732 47 45 47ZM27.5 61C27.5 51.335 35.335 43.5 45 43.5C54.665 43.5 62.5 51.335 62.5 61C62.5 70.665 54.665 78.5 45 78.5C35.335 78.5 27.5 70.665 27.5 61ZM46.2374 54.5126C46.9209 55.196 46.9209 56.304 46.2374 56.9874L43.9749 59.25H50.25C51.2165 59.25 52 60.0335 52 61C52 61.9665 51.2165 62.75 50.25 62.75H43.9749L46.2374 65.0126C46.9209 65.696 46.9209 66.804 46.2374 67.4874C45.554 68.1709 44.446 68.1709 43.7626 67.4874L38.5126 62.2374C37.8291 61.554 37.8291 60.446 38.5126 59.7626L43.7626 54.5126C44.446 53.8291 45.554 53.8291 46.2374 54.5126Z" fill="#263B33"/>
<defs>
<filter id="filter0_d_225_627" x="24" y="353" width="342" height="74" filterUnits="userSpaceOnUse" color-interpolation-filters="sRGB">
<feFlood flood-opacity="0" result="BackgroundImageFix"/>
<feColorMatrix in="SourceAlpha" type="matrix" values="0 0 0 0 0 0 0 0 0 0 0 0 0 0 0 0 0 0 127 0" result="hardAlpha"/>
<feOffset dy="4"/>
<feGaussianBlur stdDeviation="2"/>
<feComposite in2="hardAlpha" operator="out"/>
<feColorMatrix type="matrix" values="0 0 0 0 0 0 0 0 0 0 0 0 0 0 0 0 0 0 0.25 0"/>
<feBlend mode="normal" in2="BackgroundImageFix" result="effect1_dropShadow_225_627"/>
<feBlend mode="normal" in="SourceGraphic" in2="effect1_dropShadow_225_627" result="shape"/>
</filter>
<filter id="filter1_d_225_627" x="24" y="259" width="342" height="74" filterUnits="userSpaceOnUse" color-interpolation-filters="sRGB">
<feFlood flood-opacity="0" result="BackgroundImageFix"/>
<feColorMatrix in="SourceAlpha" type="matrix" values="0 0 0 0 0 0 0 0 0 0 0 0 0 0 0 0 0 0 127 0" result="hardAlpha"/>
<feOffset dy="4"/>
<feGaussianBlur stdDeviation="2"/>
<feComposite in2="hardAlpha" operator="out"/>
<feColorMatrix type="matrix" values="0 0 0 0 0 0 0 0 0 0 0 0 0 0 0 0 0 0 0.25 0"/>
<feBlend mode="normal" in2="BackgroundImageFix" result="effect1_dropShadow_225_627"/>
<feBlend mode="normal" in="SourceGraphic" in2="effect1_dropShadow_225_627" result="shape"/>
</filter>
<filter id="filter2_d_225_627" x="24" y="165" width="342" height="74" filterUnits="userSpaceOnUse" color-interpolation-filters="sRGB">
<feFlood flood-opacity="0" result="BackgroundImageFix"/>
<feColorMatrix in="SourceAlpha" type="matrix" values="0 0 0 0 0 0 0 0 0 0 0 0 0 0 0 0 0 0 127 0" result="hardAlpha"/>
<feOffset dy="4"/>
<feGaussianBlur stdDeviation="2"/>
<feComposite in2="hardAlpha" operator="out"/>
<feColorMatrix type="matrix" values="0 0 0 0 0 0 0 0 0 0 0 0 0 0 0 0 0 0 0.25 0"/>
<feBlend mode="normal" in2="BackgroundImageFix" result="effect1_dropShadow_225_627"/>
<feBlend mode="normal" in="SourceGraphic" in2="effect1_dropShadow_225_627" result="shape"/>
</filter>
<filter id="filter3_d_225_627" x="24" y="718" width="342" height="74" filterUnits="userSpaceOnUse" color-interpolation-filters="sRGB">
<feFlood flood-opacity="0" result="BackgroundImageFix"/>
<feColorMatrix in="SourceAlpha" type="matrix" values="0 0 0 0 0 0 0 0 0 0 0 0 0 0 0 0 0 0 127 0" result="hardAlpha"/>
<feOffset dy="4"/>
<feGaussianBlur stdDeviation="2"/>
<feComposite in2="hardAlpha" operator="out"/>
<feColorMatrix type="matrix" values="0 0 0 0 0 0 0 0 0 0 0 0 0 0 0 0 0 0 0.25 0"/>
<feBlend mode="normal" in2="BackgroundImageFix" result="effect1_dropShadow_225_627"/>
<feBlend mode="normal" in="SourceGraphic" in2="effect1_dropShadow_225_627" result="shape"/>
</filter>
<filter id="filter4_d_225_627" x="24" y="624" width="342" height="74" filterUnits="userSpaceOnUse" color-interpolation-filters="sRGB">
<feFlood flood-opacity="0" result="BackgroundImageFix"/>
<feColorMatrix in="SourceAlpha" type="matrix" values="0 0 0 0 0 0 0 0 0 0 0 0 0 0 0 0 0 0 127 0" result="hardAlpha"/>
<feOffset dy="4"/>
<feGaussianBlur stdDeviation="2"/>
<feComposite in2="hardAlpha" operator="out"/>
<feColorMatrix type="matrix" values="0 0 0 0 0 0 0 0 0 0 0 0 0 0 0 0 0 0 0.25 0"/>
<feBlend mode="normal" in2="BackgroundImageFix" result="effect1_dropShadow_225_627"/>
<feBlend mode="normal" in="SourceGraphic" in2="effect1_dropShadow_225_627" result="shape"/>
</filter>
<filter id="filter5_d_225_627" x="24" y="530" width="342" height="74" filterUnits="userSpaceOnUse" color-interpolation-filters="sRGB">
<feFlood flood-opacity="0" result="BackgroundImageFix"/>
<feColorMatrix in="SourceAlpha" type="matrix" values="0 0 0 0 0 0 0 0 0 0 0 0 0 0 0 0 0 0 127 0" result="hardAlpha"/>
<feOffset dy="4"/>
<feGaussianBlur stdDeviation="2"/>
<feComposite in2="hardAlpha" operator="out"/>
<feColorMatrix type="matrix" values="0 0 0 0 0 0 0 0 0 0 0 0 0 0 0 0 0 0 0.25 0"/>
<feBlend mode="normal" in2="BackgroundImageFix" result="effect1_dropShadow_225_627"/>
<feBlend mode="normal" in="SourceGraphic" in2="effect1_dropShadow_225_627" result="shape"/>
</filter>
</defs>
</svg>
