<svg width="742" height="468" viewBox="0 0 742 468" fill="none" xmlns="http://www.w3.org/2000/svg">
<path d="M736.306 171.318C736.306 171.318 719.409 80.3958 598.597 24.238C477.785 -31.9209 421.845 23.9625 361.106 47.2767C300.368 70.5898 267.419 38.5002 166.038 23.3467C64.6573 8.19214 -23.2061 158.838 5.51806 276.503C34.2422 394.167 97.6053 436.062 236.16 462.804C374.714 489.546 456.663 401.298 554.665 417.343C652.667 433.389 769.255 343.358 736.306 171.318Z" fill="#B5D750"/>
<path opacity="0.7" d="M736.306 171.318C736.306 171.318 719.409 80.3958 598.597 24.238C477.785 -31.9209 421.845 23.9625 361.106 47.2767C300.368 70.5898 267.419 38.5002 166.038 23.3467C64.6573 8.19214 -23.2061 158.838 5.51806 276.503C34.2422 394.167 97.6053 436.062 236.16 462.804C374.714 489.546 456.663 401.298 554.665 417.343C652.667 433.389 769.255 343.358 736.306 171.318Z" fill="white"/>
<path d="M682.314 378.078C682.136 378.004 682.042 377.804 682.103 377.619C687.156 362.114 700.146 350.173 716.002 346.456C716.201 346.409 716.402 346.533 716.448 346.734C716.495 346.934 716.371 347.134 716.171 347.181C700.566 350.839 687.783 362.591 682.81 377.85C682.746 378.045 682.537 378.152 682.341 378.088C682.332 378.084 682.324 378.081 682.314 378.078Z" fill="#263238"/>
<path d="M694.761 368.129C691.258 365.228 685.713 370.04 685.798 370.21C685.406 370.886 685.03 371.574 684.67 372.274C685.44 371.563 687.981 371.16 691.323 371.907C694.663 372.527 698.199 370.769 694.761 368.129Z" fill="#263238"/>
<path d="M684.273 360.23C680.737 357.508 679.007 363.415 681.316 366.169C683.487 368.943 684.659 371.204 684.612 372.246C684.924 371.522 685.255 370.808 685.602 370.104C685.427 370.081 687.526 362.93 684.273 360.23Z" fill="#263238"/>
<path d="M699.256 363.1C696.287 359.659 690.061 363.408 690.119 363.58C689.624 364.17 689.144 364.775 688.677 365.392C689.548 364.837 692.107 364.89 695.267 366.204C698.443 367.395 702.202 366.282 699.256 363.1Z" fill="#263238"/>
<path d="M690.241 353.547C687.21 350.273 684.549 355.764 686.371 358.853C688.053 361.941 688.837 364.35 688.622 365.355C689.045 364.706 689.485 364.068 689.94 363.442C689.771 363.398 692.994 356.763 690.241 353.547Z" fill="#263238"/>
<path d="M704.505 358.912C702.148 355.028 695.405 357.663 695.437 357.838C694.855 358.333 694.284 358.844 693.724 359.369C694.67 358.975 697.175 359.466 700.066 361.293C702.992 363.007 706.876 362.544 704.505 358.912Z" fill="#263238"/>
<path d="M697.215 347.985C694.772 344.252 691.245 349.212 692.531 352.553C693.677 355.875 694.054 358.374 693.679 359.322C694.201 358.759 694.737 358.209 695.287 357.672C695.124 357.605 699.388 351.62 697.215 347.985Z" fill="#263238"/>
<path d="M710.388 355.655C708.71 351.431 701.609 352.91 701.617 353.085C700.96 353.476 700.313 353.882 699.676 354.305C700.673 354.076 703.059 354.98 705.603 357.266C708.2 359.446 712.116 359.635 710.388 355.655Z" fill="#263238"/>
<path d="M705.03 343.66C703.244 339.57 698.922 343.878 699.635 347.388C700.21 350.856 700.166 353.382 699.639 354.252C700.246 353.784 700.865 353.333 701.496 352.895C701.342 352.805 706.557 347.611 705.03 343.66Z" fill="#263238"/>
<path d="M716.788 353.42C715.841 348.971 708.539 349.252 708.522 349.426C707.806 349.703 707.097 349.997 706.396 350.308C707.419 350.247 709.626 351.536 711.758 354.215C713.957 356.797 717.818 357.634 716.788 353.42Z" fill="#263238"/>
<path d="M713.531 340.69C712.457 336.355 707.418 339.888 707.529 343.472C707.506 346.991 707.033 349.477 706.367 350.248C707.046 349.888 707.735 349.545 708.434 349.218C708.29 349.103 714.36 344.842 713.531 340.69Z" fill="#263238"/>
<path d="M712.67 347.74C712.565 347.679 718.077 343.967 721.667 343.381C725.177 342.702 726.516 345.179 725.936 346.631C725.378 348.099 722.914 348.471 720.826 348.347C718.773 348.059 712.7 347.633 712.67 347.74Z" fill="#263238"/>
<path d="M712.576 347.969C712.566 347.964 712.556 347.959 712.546 347.954C712.455 347.902 712.406 347.794 712.425 347.691C712.426 347.684 712.429 347.677 712.433 347.668C712.451 347.601 712.468 347.551 712.557 347.518C713.443 346.667 718.542 343.639 721.627 343.137C723.355 342.803 724.834 343.196 725.68 344.22C726.288 344.956 726.48 345.939 726.167 346.722C725.412 348.708 721.878 348.658 720.812 348.595C718.81 348.315 713.282 347.929 712.754 347.973C712.694 347.993 712.632 347.992 712.576 347.969ZM724.239 343.771C723.655 343.531 722.837 343.408 721.714 343.625C718.882 344.087 714.886 346.492 713.418 347.483C713.938 347.503 714.746 347.557 716.007 347.648C717.632 347.765 719.76 347.947 720.861 348.102C722.861 348.219 725.199 347.873 725.705 346.542C725.953 345.921 725.792 345.135 725.298 344.536C725.096 344.293 724.761 343.986 724.239 343.771Z" fill="#263238"/>
<path d="M682.583 377.775C682.408 377.856 682.198 377.79 682.103 377.619C674.193 363.361 674.293 345.706 682.363 331.546C682.464 331.369 682.69 331.306 682.87 331.408C683.048 331.509 683.11 331.737 683.009 331.916C675.067 345.852 674.969 363.226 682.754 377.259C682.854 377.438 682.789 377.665 682.61 377.764C682.6 377.767 682.591 377.771 682.583 377.775Z" fill="#263238"/>
<path d="M683.772 361.875C679.265 362.47 679.014 369.812 679.196 369.864C679.424 370.612 679.671 371.356 679.939 372.097C679.942 371.048 681.377 368.91 684.198 366.967C686.924 364.939 688.045 361.149 683.772 361.875Z" fill="#263238"/>
<path d="M670.852 364.193C666.453 364.936 669.6 370.223 673.187 370.404C676.695 370.699 679.147 371.378 679.878 372.122C679.56 371.399 679.262 370.671 678.983 369.938C678.848 370.05 675.043 363.645 670.852 364.193Z" fill="#263238"/>
<path d="M683.149 355.156C678.611 354.993 677.117 362.112 677.283 362.187C677.379 362.951 677.493 363.715 677.628 364.477C677.815 363.46 679.595 361.619 682.706 360.195C685.74 358.675 687.483 355.16 683.149 355.156Z" fill="#263238"/>
<path d="M670.024 355.267C665.565 355.263 667.773 360.951 671.273 361.717C674.677 362.584 676.974 363.649 677.563 364.49C677.377 363.738 677.209 362.981 677.06 362.222C676.913 362.316 674.25 355.437 670.024 355.267Z" fill="#263238"/>
<path d="M683.656 348.455C679.21 347.54 676.55 354.281 676.7 354.377C676.666 355.141 676.65 355.906 676.654 356.674C677.01 355.711 679.074 354.208 682.379 353.332C685.624 352.352 687.928 349.187 683.656 348.455Z" fill="#263238"/>
<path d="M670.697 346.367C666.302 345.619 667.532 351.58 670.853 352.912C674.065 354.331 676.149 355.756 676.588 356.676C676.532 355.91 676.494 355.142 676.474 354.374C676.315 354.448 674.837 347.248 670.697 346.367Z" fill="#263238"/>
<path d="M685.278 341.923C681.045 340.28 677.296 346.494 677.429 346.607C677.268 347.354 677.126 348.106 677.001 348.861C677.511 347.974 679.797 346.839 683.201 346.529C686.564 346.108 689.366 343.363 685.278 341.923Z" fill="#263238"/>
<path d="M672.851 337.69C668.641 336.217 668.854 342.32 671.909 344.185C674.838 346.123 676.657 347.875 676.936 348.853C677.007 348.089 677.098 347.328 677.207 346.568C677.036 346.619 676.783 339.258 672.851 337.69Z" fill="#263238"/>
<path d="M687.995 335.708C684.095 333.374 679.329 338.923 679.445 339.053C679.16 339.767 678.893 340.487 678.644 341.214C679.296 340.422 681.741 339.68 685.152 339.939C688.539 340.082 691.78 337.82 687.995 335.708Z" fill="#263238"/>
<path d="M676.462 329.434C672.557 327.272 671.715 333.373 674.413 335.73C676.973 338.141 678.471 340.18 678.582 341.194C678.781 340.452 678.999 339.712 679.235 338.977C679.052 339.003 680.064 331.65 676.462 329.434Z" fill="#263238"/>
<path d="M681.035 334.864C680.92 334.9 681.953 328.331 683.968 325.299C685.86 322.263 688.583 322.966 689.252 324.378C689.946 325.787 688.542 327.847 687.03 329.295C685.422 330.605 680.977 334.769 681.035 334.864Z" fill="#263238"/>
<path d="M681.138 335.089C681.128 335.093 681.118 335.097 681.107 335.1C681.007 335.131 680.895 335.094 680.832 335.01C680.828 335.004 680.824 334.997 680.82 334.989C680.784 334.93 680.759 334.883 680.796 334.795C680.775 333.566 682.03 327.766 683.761 325.16C684.693 323.665 685.987 322.847 687.312 322.925C688.265 322.979 689.114 323.508 689.475 324.27C690.414 326.175 687.973 328.733 687.201 329.472C685.634 330.75 681.589 334.544 681.262 334.96C681.237 335.018 681.192 335.063 681.138 335.089ZM686.002 323.677C685.428 323.942 684.782 324.459 684.177 325.43C682.588 327.821 681.629 332.39 681.355 334.141C681.724 333.772 682.314 333.216 683.238 332.354C684.43 331.243 686.011 329.805 686.872 329.103C688.319 327.715 689.656 325.764 689.028 324.487C688.742 323.883 688.057 323.466 687.282 323.421C686.967 323.403 686.514 323.439 686.002 323.677Z" fill="#263238"/>
<path d="M68.8489 378.083C68.9942 378.023 69.0715 377.86 69.022 377.707C64.891 365.034 54.2735 355.272 41.3118 352.234C41.149 352.196 40.9851 352.297 40.947 352.461C40.9089 352.624 41.0099 352.788 41.1737 352.826C53.9304 355.818 64.38 365.424 68.445 377.897C68.4975 378.057 68.6686 378.144 68.8283 378.092C68.8345 378.088 68.8417 378.085 68.8489 378.083Z" fill="#263238"/>
<path d="M58.6733 369.951C61.5369 367.58 66.0697 371.513 65.9997 371.651C66.3201 372.203 66.6282 372.766 66.9219 373.338C66.2923 372.756 64.215 372.427 61.4833 373.038C58.7537 373.545 55.8623 372.109 58.6733 369.951Z" fill="#263238"/>
<path d="M67.2491 363.493C70.1405 361.268 71.5542 366.096 69.6665 368.348C67.891 370.615 66.9338 372.464 66.9719 373.315C66.7164 372.723 66.4464 372.139 66.163 371.563C66.3052 371.546 64.5895 365.7 67.2491 363.493Z" fill="#263238"/>
<path d="M55.0005 365.838C57.4271 363.026 62.5174 366.09 62.47 366.231C62.874 366.714 63.2676 367.207 63.6488 367.711C62.9368 367.258 60.845 367.302 58.2618 368.375C55.6651 369.351 52.5924 368.44 55.0005 365.838Z" fill="#263238"/>
<path d="M62.3687 358.03C64.8469 355.353 67.0211 359.843 65.5332 362.367C64.1586 364.891 63.5176 366.86 63.6938 367.682C63.3476 367.151 62.988 366.63 62.616 366.119C62.7531 366.083 60.1183 360.659 62.3687 358.03Z" fill="#263238"/>
<path d="M50.7103 362.415C52.6372 359.24 58.1489 361.395 58.1232 361.537C58.5992 361.942 59.066 362.36 59.5225 362.789C58.7497 362.466 56.7012 362.868 54.3384 364.362C51.9468 365.763 48.771 365.384 50.7103 362.415Z" fill="#263238"/>
<path d="M56.6691 353.483C58.6661 350.432 61.5493 354.486 60.4982 357.217C59.5616 359.934 59.2535 361.976 59.5605 362.751C59.1339 362.291 58.696 361.841 58.2467 361.401C58.3797 361.348 54.8937 356.455 56.6691 353.483Z" fill="#263238"/>
<path d="M45.8993 359.754C47.2708 356.301 53.0741 357.509 53.069 357.653C53.6058 357.972 54.1344 358.305 54.6548 358.65C53.8408 358.464 51.8902 359.202 49.8097 361.07C47.6871 362.853 44.4866 363.006 45.8993 359.754Z" fill="#263238"/>
<path d="M50.2781 349.948C51.7383 346.605 55.2716 350.127 54.6894 352.995C54.2195 355.83 54.2556 357.895 54.6853 358.607C54.1886 358.225 53.6827 357.856 53.1675 357.498C53.2932 357.424 49.0303 353.178 50.2781 349.948Z" fill="#263238"/>
<path d="M40.6692 357.926C41.4431 354.29 47.4134 354.518 47.4257 354.66C48.011 354.886 48.5911 355.127 49.164 355.381C48.3273 355.332 46.5231 356.385 44.7806 358.575C42.9846 360.687 39.8284 361.372 40.6692 357.926Z" fill="#263238"/>
<path d="M43.3313 347.521C44.2093 343.978 48.3289 346.866 48.2382 349.796C48.2568 352.672 48.6432 354.705 49.1883 355.335C48.6329 355.041 48.0703 354.76 47.4984 354.492C47.6158 354.397 42.6543 350.915 43.3313 347.521Z" fill="#263238"/>
<path d="M44.0359 353.283C44.1214 353.234 39.6164 350.199 36.6817 349.721C33.813 349.166 32.7176 351.191 33.1916 352.377C33.6481 353.577 35.6626 353.881 37.369 353.78C39.0476 353.544 44.0111 353.195 44.0359 353.283Z" fill="#263238"/>
<path d="M44.1131 353.471C44.1214 353.468 44.1296 353.464 44.1368 353.46C44.211 353.416 44.2512 353.329 44.2368 353.245C44.2358 353.239 44.2337 353.233 44.2306 353.226C44.2151 353.172 44.2028 353.131 44.1286 353.104C43.4052 352.408 39.2361 349.934 36.7147 349.522C35.3019 349.249 34.0933 349.571 33.4018 350.408C32.9041 351.011 32.7486 351.813 33.0041 352.454C33.6213 354.077 36.5106 354.035 37.3814 353.984C39.0187 353.755 43.5371 353.44 43.9689 353.475C44.0152 353.491 44.0668 353.49 44.1131 353.471ZM34.5786 350.039C35.0567 349.842 35.7255 349.742 36.6436 349.919C38.9589 350.297 42.2254 352.264 43.4248 353.073C42.9992 353.089 42.3387 353.134 41.3083 353.208C39.9801 353.305 38.2407 353.452 37.3412 353.578C35.7059 353.674 33.7944 353.392 33.3812 352.303C33.1782 351.796 33.3101 351.153 33.7141 350.663C33.8779 350.466 34.153 350.214 34.5786 350.039Z" fill="#263238"/>
<path d="M68.6307 377.835C68.7739 377.901 68.945 377.846 69.0233 377.706C75.4882 366.052 75.4078 351.62 68.811 340.044C68.7286 339.899 68.5431 339.847 68.3968 339.931C68.2515 340.014 68.2 340.2 68.2834 340.345C74.7751 351.738 74.8545 365.94 68.4916 377.411C68.4102 377.557 68.4627 377.743 68.6101 377.825C68.6173 377.829 68.6235 377.832 68.6307 377.835Z" fill="#263238"/>
<path d="M67.6582 364.837C71.342 365.324 71.5481 371.325 71.3997 371.368C71.2132 371.979 71.0112 372.588 70.7928 373.193C70.7897 372.336 69.6171 370.588 67.311 369C65.0821 367.342 64.1661 364.244 67.6582 364.837Z" fill="#263238"/>
<path d="M78.2195 366.732C81.8157 367.339 79.2427 371.662 76.3101 371.81C73.4424 372.051 71.4372 372.606 70.8406 373.213C71.1002 372.623 71.3434 372.028 71.5722 371.428C71.6835 371.521 74.7943 366.285 78.2195 366.732Z" fill="#263238"/>
<path d="M68.1688 359.344C71.8784 359.211 73.0994 365.03 72.9645 365.091C72.8861 365.716 72.7924 366.34 72.6832 366.964C72.5306 366.132 71.0757 364.628 68.5326 363.463C66.0513 362.221 64.6262 359.349 68.1688 359.344Z" fill="#263238"/>
<path d="M78.8969 359.436C82.5415 359.432 80.7372 364.082 77.8757 364.709C75.0925 365.418 73.2151 366.288 72.7339 366.976C72.8864 366.361 73.0234 365.742 73.145 365.122C73.2656 365.199 75.4419 359.575 78.8969 359.436Z" fill="#263238"/>
<path d="M67.7537 353.868C71.3891 353.12 73.5622 358.63 73.4406 358.708C73.4685 359.333 73.4808 359.959 73.4777 360.587C73.1872 359.801 71.5003 358.571 68.7986 357.855C66.1442 357.053 64.2606 354.466 67.7537 353.868Z" fill="#263238"/>
<path d="M78.3467 352.161C81.9398 351.549 80.9341 356.423 78.219 357.511C75.5934 358.671 73.8891 359.836 73.5305 360.588C73.5769 359.961 73.6078 359.333 73.6233 358.706C73.7541 358.767 74.9628 352.881 78.3467 352.161Z" fill="#263238"/>
<path d="M66.4285 348.529C69.8887 347.186 72.9542 352.265 72.846 352.358C72.9779 352.968 73.0943 353.583 73.1953 354.2C72.778 353.475 70.9098 352.548 68.1266 352.293C65.3775 351.948 63.0868 349.706 66.4285 348.529Z" fill="#263238"/>
<path d="M76.5867 345.068C80.0284 343.864 79.8542 348.853 77.3575 350.377C74.9628 351.962 73.4759 353.394 73.2481 354.193C73.1894 353.569 73.1163 352.946 73.0266 352.325C73.1667 352.367 73.3739 346.35 76.5867 345.068Z" fill="#263238"/>
<path d="M64.2071 343.447C67.3953 341.54 71.2913 346.076 71.1955 346.182C71.4284 346.766 71.6468 347.354 71.8509 347.948C71.3181 347.301 69.3191 346.694 66.5308 346.906C63.762 347.024 61.1138 345.174 64.2071 343.447Z" fill="#263238"/>
<path d="M73.6358 338.318C76.827 336.551 77.5164 341.539 75.3102 343.465C73.2174 345.436 71.9933 347.102 71.9026 347.931C71.7398 347.324 71.5626 346.719 71.3689 346.119C71.5183 346.142 70.6908 340.132 73.6358 338.318Z" fill="#263238"/>
<path d="M69.8974 342.757C69.9922 342.787 69.1472 337.417 67.5006 334.938C65.9539 332.456 63.7272 333.031 63.1811 334.185C62.6133 335.336 63.7612 337.021 64.9967 338.204C66.3105 339.276 69.9438 342.68 69.8974 342.757Z" fill="#263238"/>
<path d="M69.8124 342.942C69.8207 342.946 69.8289 342.949 69.8371 342.951C69.9196 342.977 70.0113 342.946 70.0618 342.878C70.0649 342.873 70.068 342.868 70.071 342.86C70.1009 342.812 70.1215 342.775 70.0917 342.702C70.1081 341.698 69.0829 336.957 67.6681 334.827C66.9066 333.604 65.8484 332.937 64.7654 333C63.9853 333.045 63.2919 333.476 62.9972 334.099C62.2295 335.657 64.2254 337.748 64.8561 338.351C66.1379 339.396 69.4435 342.497 69.7104 342.838C69.731 342.884 69.7671 342.921 69.8124 342.942ZM65.836 333.612C66.3048 333.829 66.8334 334.251 67.3291 335.046C68.6285 337.001 69.4116 340.736 69.6362 342.166C69.3343 341.865 68.8531 341.411 68.0967 340.705C67.122 339.797 65.8298 338.622 65.126 338.047C63.9431 336.913 62.8498 335.319 63.364 334.275C63.5979 333.781 64.1574 333.44 64.7911 333.403C65.0467 333.389 65.4176 333.42 65.836 333.612Z" fill="#263238"/>
<path d="M727.136 378.106H22.5088" stroke="#263238" stroke-miterlimit="10" stroke-linecap="round" stroke-linejoin="round"/>
<path d="M555.461 263.127H195.741C173.033 263.127 154.623 244.699 154.623 221.964V48.0184C154.623 25.285 173.033 6.85522 195.741 6.85522H555.46C578.169 6.85522 596.578 25.285 596.578 48.0184V221.964C596.578 244.699 578.17 263.127 555.461 263.127Z" fill="white"/>
<path d="M555.598 12.9H195.208C175.251 12.9 159.074 29.1077 159.074 49.0848V112.012H159.068V160.198H159.074V220.692C159.074 240.67 175.251 256.877 195.208 256.877H555.598C575.566 256.877 591.744 240.669 591.744 220.692V49.0859C591.744 29.1077 575.566 12.9 555.598 12.9Z" fill="#D6D6D6"/>
<path d="M423.032 107.271H308.997V54.8634C308.997 53.9361 308.456 53.0933 307.614 52.7075L220.684 12.905H209.296L304.259 56.386V107.271H159.068V112.013H217.45C212.785 159.341 235.076 187.066 254.831 202.043C271.884 214.969 289.552 220.717 296.797 222.681L275.112 256.873H280.724L319.562 195.637V195.675H388.848L377.699 256.872H382.515L408.907 112.012H421.892L537.482 256.872H543.545L491.27 191.359L558.75 141.427C559.365 140.973 559.712 140.262 559.712 139.52C559.712 139.324 559.688 139.127 559.638 138.932L539.501 60.2203H591.742V55.4782H493.669C492.776 55.4782 491.958 55.9806 491.555 56.779L482.621 74.4578L449.698 44.2436L461.739 12.9029H456.665L444.699 44.0517C444.349 44.9585 444.59 45.9921 445.308 46.6512L480.4 78.8564L449.806 139.399L424.881 108.163C424.433 107.598 423.752 107.271 423.032 107.271ZM495.126 60.2213H534.612L554.654 138.563L488.311 187.651L453.057 143.47L495.126 60.2213ZM404.092 112.013L389.713 190.934H322.545L372.599 112.013H404.092ZM366.987 112.013L299.468 218.471C293.889 217.047 275.249 211.572 257.692 198.262C230.377 177.558 218.451 148.541 222.204 112.013H366.987Z" fill="white"/>
<path d="M374.278 12.8996V20.0019L419.058 37.9282V73.7819L375.273 54.8591V82.7451H332.495V40.9166L278.17 12.8996H374.278Z" fill="#C4C4C4"/>
<path d="M200.911 212.132V247.701H230.519V212.132H200.911Z" fill="#C4C4C4"/>
<path d="M200.911 180.594V206.204H222.229V180.594H200.911Z" fill="#C4C4C4"/>
<path d="M295.21 207.763L351.996 119.74H232.928C232.928 119.74 226.823 182.702 295.21 207.763Z" fill="#C4C4C4"/>
<path d="M200.911 156.407V173.006H214.728V156.407H200.911Z" fill="#C4C4C4"/>
<path d="M479.229 125.582L501.73 157.594L534.892 139.809L531.339 75.7853L500.547 72.2285L489.888 97.1261L506.468 107.798L500.547 118.468L482.782 108.983L479.229 125.582Z" fill="#C4C4C4"/>
<path d="M412.424 228.161H476.402L490.993 256.878H411.074L412.424 228.161Z" fill="#C4C4C4"/>
<path d="M452.132 180.356H414.668L412.803 220.196H472.361L452.132 180.356Z" fill="#C4C4C4"/>
<path d="M414.947 174.38H449.097L436.959 150.476H416.066L414.947 174.38Z" fill="#C4C4C4"/>
<path d="M221.301 15.1821L222.704 15.8309" stroke="#263238" stroke-width="2" stroke-linejoin="round"/>
<path d="M225.542 17.145L303.565 53.2659" stroke="#263238" stroke-width="2" stroke-linejoin="round" stroke-dasharray="3.03 3.03"/>
<path d="M304.984 53.9229L306.387 54.5728V56.1201" stroke="#263238" stroke-width="2" stroke-linejoin="round"/>
<path d="M306.387 59.1634V106.33" stroke="#263238" stroke-width="2" stroke-linejoin="round" stroke-dasharray="2.95 2.95"/>
<path d="M306.386 107.852V109.399H304.841" stroke="#263238" stroke-width="2" stroke-linejoin="round"/>
<path d="M301.752 109.399H222.974" stroke="#263238" stroke-width="2" stroke-linejoin="round" stroke-dasharray="3 3"/>
<path d="M221.43 109.399H219.884C219.884 109.399 219.762 109.927 219.589 110.913" stroke="#263238" stroke-width="2" stroke-linejoin="round"/>
<path d="M219.134 113.938C217.526 126.437 215.988 162.324 245.052 190.843C265.225 210.639 289.677 218.196 298.067 220.32" stroke="#263238" stroke-width="2" stroke-linejoin="round" stroke-dasharray="2.97 2.97"/>
<path d="M299.553 220.682C300.53 220.908 301.06 221.008 301.06 221.008L301.888 219.702" stroke="#263238" stroke-width="2" stroke-linejoin="round"/>
<path d="M303.578 217.039L370.284 111.86" stroke="#263238" stroke-width="2" stroke-linejoin="round" stroke-dasharray="3.06 3.06"/>
<path d="M371.13 110.53L371.958 109.223H373.504" stroke="#263238" stroke-width="2" stroke-linejoin="round"/>
<path d="M376.606 109.223H418.488" stroke="#263238" stroke-width="2" stroke-linejoin="round" stroke-dasharray="3.01 3.01"/>
<path d="M420.039 109.223H421.584L422.551 110.43" stroke="#263238" stroke-width="2" stroke-linejoin="round"/>
<path d="M424.441 112.793L495.304 201.382" stroke="#263238" stroke-width="2" stroke-linejoin="round" stroke-dasharray="2.93 2.93"/>
<path d="M496.249 202.563L497.216 203.77" stroke="#263238" stroke-width="2" stroke-linejoin="round"/>
<path d="M221.617 114.534L209.441 123.395L198.348 114.799L198.335 114.79C193.312 111.21 190.033 105.336 190.033 98.6915C190.033 87.7921 198.861 78.9579 209.749 78.9579C220.636 78.9579 229.461 87.7921 229.461 98.6915C229.461 105.233 226.511 110.941 221.617 114.534Z" fill="white" stroke="#263238" stroke-miterlimit="10" stroke-linecap="round" stroke-linejoin="round"/>
<path d="M192.442 98.5606C192.442 102.769 193.94 106.63 196.429 109.64C199.611 113.479 204.411 115.924 209.786 115.924C214.739 115.924 219.203 113.849 222.365 110.52C225.321 107.404 227.129 103.191 227.129 98.5606C227.129 88.9712 219.368 81.1974 209.785 81.1974C200.207 81.1974 192.442 88.9723 192.442 98.5606Z" fill="#B5D750" stroke="#263238" stroke-miterlimit="10" stroke-linejoin="round"/>
<path d="M209.786 115.924C214.068 115.924 217.98 114.372 221.007 111.803C220.44 105.933 215.501 101.344 209.489 101.344C203.642 101.344 198.819 105.69 198.038 111.329C201.129 114.178 205.251 115.924 209.786 115.924Z" fill="#263238" stroke="#263238" stroke-miterlimit="10" stroke-linejoin="round"/>
<path d="M217.041 94.7304C217.717 90.5588 214.887 86.6282 210.72 85.9512C206.553 85.2741 202.627 88.1071 201.95 92.2787C201.274 96.4503 204.104 100.381 208.271 101.058C212.438 101.735 216.364 98.902 217.041 94.7304Z" fill="#263238" stroke="#263238" stroke-miterlimit="10" stroke-linejoin="round"/>
<path d="M361.464 165.955L349.287 174.816L338.195 166.219L338.181 166.21C333.158 162.632 329.879 156.756 329.879 150.112C329.879 139.212 338.708 130.378 349.595 130.378C360.483 130.378 369.307 139.212 369.307 150.112C369.307 156.654 366.357 162.362 361.464 165.955Z" fill="white" stroke="#263238" stroke-miterlimit="10" stroke-linecap="round" stroke-linejoin="round"/>
<path d="M332.289 149.983C332.289 154.191 333.787 158.052 336.276 161.063C339.458 164.901 344.258 167.346 349.633 167.346C354.586 167.346 359.049 165.271 362.213 161.942C365.169 158.826 366.977 154.613 366.977 149.983C366.977 140.393 359.216 132.619 349.633 132.619C340.054 132.619 332.289 140.393 332.289 149.983Z" fill="#B5D750" stroke="#263238" stroke-miterlimit="10" stroke-linejoin="round"/>
<path d="M349.633 167.345C353.915 167.345 357.827 165.793 360.854 163.224C360.287 157.354 355.348 152.765 349.337 152.765C343.489 152.765 338.667 157.111 337.885 162.75C340.976 165.599 345.098 167.345 349.633 167.345Z" fill="#263238" stroke="#263238" stroke-miterlimit="10" stroke-linejoin="round"/>
<path d="M349.337 152.579C353.558 152.579 356.98 149.153 356.98 144.927C356.98 140.701 353.558 137.275 349.337 137.275C345.115 137.275 341.693 140.701 341.693 144.927C341.693 149.153 345.115 152.579 349.337 152.579Z" fill="#263238" stroke="#263238" stroke-miterlimit="10" stroke-linejoin="round"/>
<path d="M449.231 160.335C448.123 161.535 447.2 162.961 447.207 163.433C447.213 163.904 452.926 171.78 453.721 172.747C454.515 173.713 456.689 175.545 456.689 175.545L472.349 194.593C471.835 194.818 470.529 195.391 470.265 195.534C469.935 195.711 470.666 196.253 471.494 196.333C472.322 196.414 473.558 196.063 473.558 196.063L482.896 206.959C482.896 206.959 485.781 207.92 487.998 207.141C490.216 206.363 494.062 203.86 497.225 200.873C500.387 197.886 501.363 196.987 501.363 196.987C501.363 196.987 501.997 196.369 502.131 196.068C502.265 195.767 503.368 190.855 502.848 189.758C502.327 188.662 501.83 188.404 501.83 188.404C501.83 188.404 494.643 179.548 494.27 179.093C494.258 179.078 494.245 179.063 494.232 179.048C494.442 178.642 495.067 177.403 495.108 176.973C495.159 176.455 494.664 175.623 494.437 175.809C494.234 175.976 493.208 177.354 492.991 177.647L476.945 157.904C476.945 157.904 474.986 154.942 473.725 153.407C472.463 151.872 468.16 147.219 467.296 146.977C466.431 146.736 465.713 147.137 465.543 147.278C465.373 147.418 459.966 150.919 458.113 152.256C456.258 153.593 450.34 159.135 449.231 160.335Z" fill="#263238" stroke="#263238" stroke-miterlimit="10" stroke-linecap="round" stroke-linejoin="round"/>
<path d="M490.538 178.259L491.743 178.22L482.829 167.261L479.981 168.082C479.981 168.082 488.678 177.503 490.538 178.259Z" fill="white"/>
<path d="M478.474 166.367L480.995 165.147L471.42 154.542C471.42 154.542 472.176 158.59 472.55 159.045C472.924 159.499 478.474 166.367 478.474 166.367Z" fill="white"/>
<path d="M452.846 165.079C452.846 165.079 453.648 163.275 455.361 161.768C457.075 160.261 464.987 153.551 465.798 153.265C466.609 152.978 468.369 153.148 468.369 153.148C468.369 153.148 467.414 150.597 466.553 149.781C465.692 148.965 464.42 149.156 464.089 149.332C463.758 149.51 456.845 154.538 455.055 156.298C453.266 158.059 450.206 161.057 450.005 161.508C449.804 161.959 450.219 163.62 450.649 164.028C451.08 164.436 452.846 165.079 452.846 165.079Z" fill="white"/>
<path d="M454.01 168.696C454.01 168.696 457.051 170.193 457.538 170.556C458.025 170.918 464.12 178.098 464.12 178.098L462.29 180.274L456.152 172.461L454.01 168.696Z" fill="white"/>
<path d="M464.086 182.226L465.523 179.802C465.523 179.802 468.987 184.48 469.751 185.757C470.516 187.034 473.526 192.085 473.526 192.085L473.235 193.468L464.086 182.226Z" fill="white"/>
<path d="M471.46 186.447C471.46 186.447 481.415 179.675 485.002 175.003L493.981 183.145C493.981 183.145 495.103 184.508 495.129 184.773C495.156 185.037 495.143 185.715 495.143 185.715C495.143 185.715 492.871 190.829 489.759 193.297C486.647 195.767 481.407 198.082 480.823 198.182C480.239 198.282 479.28 197.927 479.28 197.927L477.845 197.108L471.46 186.447Z" fill="white"/>
<path d="M497.876 186.608C497.876 186.608 499.788 191.134 499.871 192.972C499.954 194.81 499.646 195.827 499.646 195.827C499.646 195.827 501.116 194.139 501.217 193.103C501.318 192.068 501.267 190.964 500.924 190.198C500.579 189.433 497.876 186.608 497.876 186.608Z" fill="white"/>
<path d="M480.334 201.062C480.334 201.062 484.196 203.79 485.408 204.222C486.619 204.653 488.709 204.647 488.709 204.647C488.709 204.647 486.839 205.616 486.208 205.659C485.578 205.703 483.153 204.839 482.666 204.478C482.179 204.117 480.397 201.487 480.334 201.062Z" fill="white"/>
<path d="M336.605 263.776C336.605 263.776 326.704 289.074 324.348 297.092C321.993 305.109 321.051 317.371 321.051 317.371L396.613 325.027C396.613 325.027 409.617 321.616 408.674 314.541C407.733 307.467 399.257 294.302 387.475 282.944C375.694 271.585 357.796 262.193 352.143 262.193C346.49 262.193 336.605 263.776 336.605 263.776Z" fill="#757575" stroke="#263238" stroke-miterlimit="10" stroke-linecap="round" stroke-linejoin="round"/>
<path d="M601.562 290.837L606.006 311.104L589.218 314.563L601.562 290.837Z" fill="#263238" stroke="#263238" stroke-miterlimit="10" stroke-linecap="round" stroke-linejoin="round"/>
<path d="M652.302 312.677C649.045 303.44 644.159 302.896 644.159 302.896L630.047 266.489C630.047 266.489 614.306 268.662 607.792 274.096C601.278 279.53 586.079 314.307 586.079 314.307L598.021 389.839C598.021 389.839 647.416 379.514 649.044 378.428C650.672 377.34 652.301 367.017 652.843 360.496C653.387 353.975 655.558 321.915 652.302 312.677ZM592.181 311.35C592.181 311.35 605.019 283.669 607.981 279.714C610.944 275.76 615.881 273.535 615.881 273.535L626.089 271.2L636.372 304.182L592.181 311.35Z" fill="#B5D750" stroke="#263238" stroke-miterlimit="10" stroke-linecap="round" stroke-linejoin="round"/>
<path d="M591.686 313.575L606.005 311.103C606.005 311.103 611.684 300.229 613.412 298.745C615.14 297.262 617.608 295.78 621.805 296.768C626.002 297.756 634.89 302.699 634.396 305.913C633.903 309.126 633.162 310.114 628.471 310.856C623.781 311.598 611.436 311.598 611.436 311.598C611.436 311.598 608.226 316.787 607.487 317.777C606.746 318.765 594.649 322.72 594.649 322.72C594.649 322.72 593.168 318.765 591.686 313.575Z" fill="#263238" stroke="#263238" stroke-miterlimit="10" stroke-linecap="round" stroke-linejoin="round"/>
<path d="M543.131 424.091C543.131 424.091 540.198 426.719 538.808 427.801C537.418 428.883 535.101 430.893 532.786 431.666C530.469 432.439 529.234 432.903 529.388 434.14C529.543 435.377 529.543 436.614 530.315 436.768C531.087 436.923 558.882 436.768 558.882 436.768C558.882 436.768 559.654 435.532 559.5 432.749C559.345 429.967 558.419 427.802 558.419 427.802C558.419 427.802 551.315 425.793 548.227 424.092C545.14 422.391 543.131 424.091 543.131 424.091Z" fill="white" stroke="#263238" stroke-miterlimit="10" stroke-linecap="round" stroke-linejoin="round"/>
<path d="M559.342 435.376H529.532C529.636 436.1 529.809 436.666 530.314 436.767C531.086 436.922 558.881 436.767 558.881 436.767C558.881 436.767 559.153 436.318 559.342 435.376Z" fill="white" stroke="#263238" stroke-miterlimit="10" stroke-linecap="round" stroke-linejoin="round"/>
<path d="M534.022 318.662C534.022 318.662 532.014 331.647 534.022 345.096C536.029 358.546 538.191 368.13 538.191 368.13C538.191 368.13 541.279 381.579 541.588 385.908C541.897 390.236 544.831 413.115 544.676 413.579C544.522 414.043 544.212 415.125 544.212 415.898C544.212 416.671 542.205 417.753 542.514 418.68C542.823 419.608 543.132 424.091 543.132 424.091C543.132 424.091 546.683 423.473 548.227 424.091C549.771 424.709 556.72 427.182 556.72 427.182L558.418 427.8C558.418 427.8 560.271 426.409 560.271 424.244C560.271 422.08 557.492 419.606 557.492 419.606C557.492 419.606 559.344 418.834 559.499 418.06C559.653 417.288 558.727 414.504 558.727 414.041C558.727 413.577 558.418 408.94 558.418 408.013C558.418 407.085 558.572 395.336 558.572 393.946C558.572 392.555 557.182 371.221 557.182 371.221L555.638 355.763C555.638 355.763 559.344 373.231 560.888 378.796C562.432 384.361 566.911 407.704 567.065 408.477C567.22 409.25 567.837 415.279 567.682 415.742C567.528 416.205 565.83 417.289 565.984 417.906C566.139 418.524 567.22 426.254 567.22 426.254L578.338 427.181C578.338 427.181 579.574 424.862 580.191 423.162C580.808 421.462 579.727 419.916 579.727 419.298C579.727 418.68 580.654 418.834 580.344 416.361C580.035 413.888 579.727 411.878 579.727 411.878C579.727 411.878 578.955 410.641 578.801 406.313C578.646 401.984 581.117 390.081 579.418 383.279C577.72 376.477 575.712 370.757 575.558 363.337C575.403 355.917 575.403 342.004 574.786 338.294C574.169 334.584 573.179 322.981 573.179 322.981L572.779 321.29L534.022 318.662Z" fill="#8C8C8C" stroke="#263238" stroke-miterlimit="10" stroke-linecap="round" stroke-linejoin="round"/>
<path d="M547.302 339.995L553.169 342.777L555.176 354.063" stroke="#263238" stroke-miterlimit="10" stroke-linecap="round" stroke-linejoin="round"/>
<path d="M568.457 423.936C568.457 423.936 567.376 427.8 566.295 429.656C565.214 431.51 563.516 432.592 563.052 433.675C562.588 434.757 562.743 436.766 562.743 436.766H579.266C579.266 436.766 580.501 435.22 580.501 431.51C580.501 427.8 579.111 425.945 577.876 423.781C576.641 421.618 572.472 420.071 568.457 423.936Z" fill="white" stroke="#263238" stroke-miterlimit="10" stroke-linecap="round" stroke-linejoin="round"/>
<path d="M580.142 434.664L579.884 434.603H562.811C562.657 435.629 562.743 436.767 562.743 436.767H579.266C579.266 436.767 579.777 436.113 580.142 434.664Z" fill="white" stroke="#263238" stroke-miterlimit="10" stroke-linecap="round" stroke-linejoin="round"/>
<path d="M544.635 252.206C544.635 252.206 541.582 255.35 539.16 256.683C536.739 258.016 532.744 259.227 532.017 260.682C531.291 262.136 530.443 272.196 531.533 277.408C532.622 282.619 533.955 286.255 533.955 286.255L534.803 305.527L533.47 320.313C533.47 320.313 548.12 322.252 557.442 323.343C566.764 324.433 573.181 322.979 573.181 322.979C573.181 322.979 573.665 314.131 573.787 309.525C573.907 304.919 574.149 283.225 574.149 283.225L581.535 295.588C581.535 295.588 586.677 298.916 595 293.534C597.348 292.015 588.322 282.329 587.717 279.298C587.111 276.269 583.23 269.771 583.23 269.771C583.23 269.771 580.082 260.317 577.66 257.894C575.239 255.47 571.97 254.864 568.458 254.379C564.948 253.894 559.159 251.498 559.159 251.498L544.635 252.206Z" fill="#B5D750" stroke="#263238" stroke-miterlimit="10" stroke-linecap="round" stroke-linejoin="round"/>
<path d="M587.025 282.772C587.025 282.772 583.21 283.293 582.169 289.889" stroke="#263238" stroke-miterlimit="10" stroke-linecap="round" stroke-linejoin="round"/>
<path d="M579.741 285.376C579.741 285.376 582.342 282.773 585.29 282.773" stroke="#263238" stroke-miterlimit="10" stroke-linecap="round" stroke-linejoin="round"/>
<path d="M534.348 228.175C534.348 228.175 534.651 238.676 535.054 240.392C535.457 242.109 538.281 245.643 539.492 247.258C540.703 248.874 543.224 249.278 543.526 249.278C543.829 249.278 544.636 250.49 544.636 252.207C544.636 253.923 543.93 254.227 544.031 259.174C544.132 264.121 544.838 268.362 544.838 268.362C544.838 268.362 547.763 266.443 552.806 260.991C557.849 255.538 559.161 251.499 559.161 251.499C559.161 251.499 556.942 249.479 556.235 247.157C555.53 244.835 555.63 238.979 555.63 238.979C555.63 238.979 559.262 236.152 559.464 234.536C559.666 232.921 558.152 229.891 558.152 229.891C558.152 229.891 556.437 223.833 554.521 220.804C552.604 217.775 552.302 216.26 545.948 217.977C539.593 219.693 537.374 220.097 535.357 221.612C533.339 223.126 533.037 224.944 533.037 224.944L534.348 228.175Z" fill="white" stroke="#263238" stroke-miterlimit="10" stroke-linecap="round" stroke-linejoin="round"/>
<path d="M543.527 249.278C543.527 249.278 545.443 249.076 546.553 248.774C547.663 248.47 549.176 247.865 549.176 247.865L544.637 252.207L543.527 249.278Z" fill="#263238" stroke="#263238" stroke-miterlimit="10" stroke-linecap="round" stroke-linejoin="round"/>
<path d="M538.025 239.663C538.025 239.663 538.731 240.774 539.74 240.37C540.749 239.965 541.319 239.684 541.319 239.684" stroke="#263238" stroke-miterlimit="10" stroke-linecap="round" stroke-linejoin="round"/>
<path d="M540.804 242.613C540.804 242.613 544.436 243.118 546.553 240.089" stroke="#263238" stroke-miterlimit="10" stroke-linecap="round" stroke-linejoin="round"/>
<path d="M542.115 231.709C542.115 231.709 545.343 230.8 547.057 231.709" stroke="#263238" stroke-miterlimit="10" stroke-linecap="round" stroke-linejoin="round"/>
<path d="M537.879 232.112C537.879 232.112 536.165 231.001 535.156 232.314" stroke="#263238" stroke-miterlimit="10" stroke-linecap="round" stroke-linejoin="round"/>
<path d="M536.905 234.548C536.986 235.215 536.763 235.79 536.409 235.832C536.054 235.874 535.703 235.369 535.622 234.701C535.542 234.035 535.765 233.459 536.119 233.417C536.474 233.375 536.826 233.88 536.905 234.548Z" fill="#263238"/>
<path d="M544.113 234.266C544.192 234.933 543.971 235.508 543.616 235.55C543.262 235.593 542.911 235.087 542.83 234.42C542.75 233.753 542.972 233.178 543.327 233.136C543.681 233.093 544.033 233.6 544.113 234.266Z" fill="#263238"/>
<path d="M548.973 221.914C548.973 221.914 545.544 224.539 544.434 224.742C543.325 224.944 539.391 223.631 537.979 223.53C536.567 223.428 533.945 225.549 533.945 225.549L534.348 228.175C534.348 228.175 530.514 227.266 529.708 225.751C528.901 224.237 531.624 222.217 531.523 221.713C531.422 221.209 530.01 219.29 531.019 218.683C532.028 218.078 536.466 216.663 536.466 216.663C536.466 216.663 538.786 211.817 540.399 211.716C542.013 211.615 545.039 212.221 545.039 212.221C545.039 212.221 546.653 210.706 548.569 211.009C550.486 211.312 553.31 214.846 553.31 214.846C553.31 214.846 557.547 214.442 558.353 216.259C559.16 218.077 559.967 220.5 559.362 222.419C558.757 224.337 558.151 228.376 558.151 228.376V229.89C558.151 229.89 556.437 230.193 555.63 230.9C554.823 231.607 554.924 232.212 554.319 232.718C553.714 233.223 553.411 233.223 553.008 233.021C552.604 232.819 552.403 232.213 552.201 231.001C551.999 229.789 551.797 229.487 550.99 229.183C550.183 228.88 549.073 228.275 548.267 227.366C547.46 226.457 546.451 225.649 547.056 224.842C547.661 224.034 548.973 221.914 548.973 221.914Z" fill="#263238" stroke="#263238" stroke-miterlimit="10" stroke-linecap="round" stroke-linejoin="round"/>
<path d="M569.67 276.924L574.15 283.227L566.643 280.682" stroke="#263238" stroke-miterlimit="10" stroke-linecap="round" stroke-linejoin="round"/>
<path d="M368.766 321.393C368.383 320.188 380.741 322.091 380.741 322.091C380.741 322.091 384.65 304.818 383.563 302.953C382.476 301.087 372.385 297.546 372.385 297.546L348.933 296.302C348.933 296.302 338.835 300.578 338.68 301.666C338.597 302.244 332.008 310.4 329.209 316.858L368.766 321.393Z" fill="#B2B2B2" stroke="#263238" stroke-miterlimit="10" stroke-linecap="round" stroke-linejoin="round"/>
<path d="M353.804 295.397C353.804 295.397 352.333 296.871 352.333 301.043C352.333 305.216 355.031 310.616 355.031 310.616L364.348 305.707L375.172 311.251C375.172 311.251 376.252 300.923 372.384 297.546C368.517 294.17 356.012 292.451 353.804 295.397Z" fill="white" stroke="#263238" stroke-miterlimit="10" stroke-linecap="round" stroke-linejoin="round"/>
<path d="M355.436 297.273C355.436 297.273 357.413 302.95 359.466 306.804C361.518 310.658 366.138 313.484 366.138 313.484C366.138 313.484 368.447 305.777 368.703 301.924C368.96 298.07 368.447 296.015 368.447 296.015L355.436 297.273Z" fill="white" stroke="#263238" stroke-miterlimit="10" stroke-linecap="round" stroke-linejoin="round"/>
<path d="M348.314 286.948C348.314 286.948 349.174 295.428 350.033 296.166C350.892 296.903 355.436 297.272 355.436 297.272L365.258 297.886C366.24 296.043 366.854 285.473 363.416 277.36C359.979 269.247 355.681 267.895 354.822 269.37C354.822 269.37 349.788 276.254 350.033 277.729C350.278 279.204 350.77 279.942 350.525 280.679C350.279 281.417 347.332 282.769 346.964 284.12C346.596 285.474 348.314 286.948 348.314 286.948Z" fill="white" stroke="#263238" stroke-miterlimit="10" stroke-linecap="round" stroke-linejoin="round"/>
<path d="M350.646 288.547C350.646 288.547 353.347 288.547 354.698 287.317" stroke="#263238" stroke-miterlimit="10" stroke-linecap="round" stroke-linejoin="round"/>
<path d="M352.734 280.926C352.734 280.926 354.085 280.556 354.944 281.418" stroke="#263238" stroke-miterlimit="10" stroke-linecap="round" stroke-linejoin="round"/>
<path d="M351.875 278.222C351.875 278.222 354.207 276.009 355.558 278.959" stroke="#263238" stroke-miterlimit="10" stroke-linecap="round" stroke-linejoin="round"/>
<path d="M354.822 269.372C354.822 269.372 355.804 277.73 358.629 283.753C361.453 289.776 362.803 291.62 362.803 291.62C362.803 291.62 362.803 296.413 361.33 297.766C359.856 299.118 358.26 298.994 358.26 298.994C358.26 298.994 356.541 301.453 362.066 302.19C367.591 302.928 369.065 300.347 371.029 300.1C372.993 299.855 373.976 300.223 373.976 300.223C373.976 300.223 374.467 298.748 374.099 297.15C373.731 295.552 373.484 294.322 373.484 294.322C373.484 294.322 377.168 290.021 377.046 285.104C376.923 280.188 378.397 277.361 375.695 271.584C372.993 265.807 358.751 264.824 356.05 264.7C353.349 264.578 352.98 264.823 351.753 266.79C350.526 268.756 346.964 271.707 346.964 273.919C346.964 276.132 350.524 280.679 350.524 280.679L350.033 277.729C350.033 277.729 352.98 272.691 354.822 269.372Z" fill="#263238" stroke="#263238" stroke-miterlimit="10" stroke-linecap="round" stroke-linejoin="round"/>
<path d="M444.405 407.644C328.462 403.959 234.472 412.821 234.472 427.439C234.472 433.609 251.216 439.816 279.287 445.209C253.913 445.724 235.417 447.318 235.417 449.204C235.417 451.507 262.977 453.374 296.976 453.374C309.28 453.374 320.73 453.129 330.346 452.708C363.188 456.437 402.349 459.242 444.406 460.579C560.348 464.264 654.339 455.402 654.339 440.784C654.339 426.166 560.347 411.33 444.405 407.644Z" fill="#263238" stroke="#263238" stroke-miterlimit="10" stroke-linecap="round" stroke-linejoin="round"/>
<path d="M239.783 388.733C239.783 388.733 242.337 394.27 244.159 396.159C245.981 398.048 278.918 406.206 278.918 406.206L385.632 429.588L398.564 428.202L443.758 429.651C443.758 429.651 452.776 407.566 442.928 385.811C433.08 364.054 383.844 355.556 369.921 359.975C355.999 364.394 323.401 378.672 299.971 370.853C276.541 363.035 257.865 347.737 250.055 349.777C242.245 351.817 238.51 364.394 238.51 369.834C238.51 375.271 239.783 388.733 239.783 388.733Z" fill="#263238" stroke="#263238" stroke-miterlimit="10" stroke-linecap="round" stroke-linejoin="round"/>
<path d="M469.203 418.985C468.272 396.53 453.267 378.289 435.688 378.245H416.631L416.964 386.289C409.519 393.684 404.992 405.499 405.544 418.823C406.096 432.147 411.604 443.987 419.664 451.422L420.002 459.565H439.059C456.637 459.608 470.133 441.441 469.203 418.985Z" fill="#263238" stroke="#263238" stroke-miterlimit="10" stroke-linecap="round" stroke-linejoin="round"/>
<path d="M422.763 459.418C440.191 457.487 452.315 437.786 449.842 415.414C447.368 393.043 431.235 376.473 413.807 378.404C396.378 380.335 384.255 400.036 386.728 422.407C389.201 444.779 405.335 461.349 422.763 459.418Z" fill="#878787" stroke="#263238" stroke-miterlimit="10" stroke-linecap="round" stroke-linejoin="round"/>
<path d="M442.941 432.742L442.942 432.739C443.253 431.734 443.526 430.704 443.759 429.65L443.76 429.647C443.993 428.592 444.183 427.515 444.333 426.417V426.416C444.657 424.02 444.785 421.532 444.679 418.972C444.453 413.519 443.219 408.372 441.229 403.811C441.21 403.77 441.192 403.729 441.174 403.686C440.73 402.677 440.249 401.697 439.732 400.751C439.7 400.692 439.669 400.633 439.636 400.574C439.118 399.636 438.567 398.73 437.983 397.86C437.952 397.814 437.922 397.766 437.891 397.72C432.743 390.12 425.176 385.251 416.921 385.23C409.852 385.211 403.586 388.756 399.093 394.529C398.795 394.912 398.505 395.303 398.224 395.705L398.223 395.706C397.943 396.105 397.67 396.515 397.406 396.933C397.404 396.936 397.402 396.939 397.4 396.942C397.139 397.355 396.888 397.774 396.643 398.204C396.637 398.215 396.63 398.226 396.624 398.238C396.386 398.659 396.156 399.087 395.933 399.523C395.922 399.545 395.912 399.565 395.9 399.586C395.685 400.011 395.479 400.443 395.279 400.882C395.264 400.917 395.247 400.951 395.231 400.986C395.039 401.411 394.857 401.843 394.68 402.28C394.66 402.331 394.638 402.381 394.619 402.432C394.451 402.856 394.29 403.287 394.136 403.722C394.113 403.788 394.088 403.854 394.065 403.92C393.92 404.34 393.783 404.766 393.651 405.195C393.624 405.281 393.596 405.366 393.571 405.452C393.447 405.865 393.334 406.283 393.223 406.703C393.196 406.81 393.166 406.915 393.138 407.022C393.036 407.426 392.943 407.834 392.855 408.245C392.827 408.373 392.796 408.499 392.769 408.627C392.688 409.02 392.616 409.419 392.545 409.818C392.52 409.967 392.49 410.114 392.465 410.264C392.402 410.648 392.349 411.038 392.296 411.428C392.273 411.595 392.247 411.76 392.226 411.929C392.18 412.308 392.145 412.692 392.109 413.074C392.091 413.257 392.069 413.438 392.055 413.621C392.025 414 392.005 414.382 391.985 414.765C391.975 414.957 391.959 415.146 391.952 415.339C391.936 415.742 391.932 416.15 391.928 416.557C391.926 416.73 391.919 416.903 391.919 417.077C391.92 417.66 391.931 418.246 391.956 418.837C391.986 419.552 392.038 420.259 392.102 420.964C392.118 421.133 392.136 421.301 392.154 421.47C392.216 422.076 392.29 422.677 392.375 423.273C392.389 423.365 392.4 423.457 392.415 423.548C392.638 425.027 392.937 426.474 393.302 427.886V427.887C395.12 434.902 398.63 440.997 403.176 445.377C403.233 445.431 403.289 445.486 403.345 445.54C403.902 446.068 404.473 446.57 405.059 447.046C405.099 447.078 405.139 447.109 405.178 447.141C409.442 450.563 414.436 452.566 419.715 452.579C425.03 452.592 429.889 450.589 433.886 447.144L433.887 447.143C437.945 443.643 441.108 438.647 442.941 432.742Z" fill="white" stroke="#263238" stroke-miterlimit="10" stroke-linecap="round" stroke-linejoin="round"/>
<path d="M441.663 419.995C441.503 416.078 440.721 412.345 439.446 408.952L428.973 415.521C429.425 416.913 429.714 418.407 429.777 419.972C429.787 420.196 429.778 420.414 429.778 420.635L441.674 422.573C441.698 421.724 441.699 420.866 441.663 419.995Z" fill="#263238" stroke="#263238" stroke-miterlimit="10" stroke-linecap="round" stroke-linejoin="round"/>
<path d="M423.103 407.946C424.191 408.541 425.19 409.362 426.07 410.353L433.444 398.995C430.883 396.19 427.856 394.071 424.561 392.862L423.103 407.946Z" fill="#263238" stroke="#263238" stroke-miterlimit="10" stroke-linecap="round" stroke-linejoin="round"/>
<path d="M428.28 427.367C427.746 428.438 427.085 429.392 426.322 430.201L432.378 443.768C435.28 441.333 437.652 438.007 439.276 434.078L428.28 427.367Z" fill="#263238" stroke="#263238" stroke-miterlimit="10" stroke-linecap="round" stroke-linejoin="round"/>
<path d="M410.461 412.906L399.782 405.469C398.216 409.123 397.307 413.313 397.231 417.796L409.169 418.137C409.297 416.232 409.748 414.459 410.461 412.906Z" fill="#263238" stroke="#263238" stroke-miterlimit="10" stroke-linecap="round" stroke-linejoin="round"/>
<path d="M414.096 408.385C414.967 407.772 415.927 407.328 416.948 407.075L415.201 391.996C411.423 392.666 408.004 394.558 405.188 397.359L414.096 408.385Z" fill="#263238" stroke="#263238" stroke-miterlimit="10" stroke-linecap="round" stroke-linejoin="round"/>
<path d="M421.129 432.99C420.757 433.041 420.38 433.072 419.995 433.071C418.906 433.069 417.849 432.849 416.846 432.449L410.992 445.445C413.948 447.191 417.212 448.175 420.617 448.181C421.546 448.183 422.457 448.104 423.35 447.965L421.129 432.99Z" fill="#263238" stroke="#263238" stroke-miterlimit="10" stroke-linecap="round" stroke-linejoin="round"/>
<path d="M410.373 425.557L398.566 428.201C399.786 432.523 401.784 436.401 404.327 439.568L411.906 428.374C411.307 427.522 410.796 426.574 410.373 425.557Z" fill="#263238" stroke="#263238" stroke-miterlimit="10" stroke-linecap="round" stroke-linejoin="round"/>
<path d="M290.475 396.283C290.038 377.467 282.998 362.183 274.749 362.146H255.738L257.318 430.284H276.33C284.578 430.322 290.911 415.099 290.475 396.283Z" fill="#263238" stroke="#263238" stroke-miterlimit="10" stroke-linecap="round" stroke-linejoin="round"/>
<path d="M271.463 396.283C271.9 415.098 265.567 430.321 257.32 430.284C249.071 430.247 242.031 414.962 241.594 396.147C241.157 377.331 247.49 362.108 255.738 362.145C263.986 362.184 271.026 377.467 271.463 396.283Z" fill="#878787" stroke="#263238" stroke-miterlimit="10" stroke-linecap="round" stroke-linejoin="round"/>
<path d="M268.082 407.809C268.082 407.808 268.082 407.808 268.082 407.807C268.228 406.966 268.356 406.102 268.465 405.218C268.465 405.218 268.465 405.217 268.465 405.216C268.574 404.332 268.664 403.429 268.734 402.508C268.887 400.502 268.946 398.416 268.897 396.271C268.791 391.703 268.212 387.389 267.278 383.568C267.27 383.533 267.261 383.499 267.252 383.464C267.044 382.618 266.818 381.798 266.575 381.003C266.56 380.954 266.545 380.904 266.531 380.856C266.288 380.07 266.029 379.311 265.755 378.581C265.741 378.542 265.726 378.503 265.712 378.464C263.297 372.096 259.746 368.016 255.872 367.999C252.555 367.983 249.616 370.953 247.507 375.791C247.367 376.111 247.232 376.44 247.099 376.776C247.099 376.776 247.099 376.776 247.099 376.777C246.967 377.112 246.84 377.455 246.716 377.805C246.715 377.808 246.714 377.81 246.713 377.813C246.59 378.158 246.473 378.51 246.358 378.87C246.355 378.879 246.352 378.889 246.349 378.899C246.237 379.252 246.13 379.611 246.026 379.976C246.02 379.994 246.015 380.011 246.01 380.03C245.909 380.385 245.812 380.748 245.718 381.116C245.711 381.145 245.703 381.174 245.696 381.204C245.606 381.559 245.52 381.921 245.437 382.289C245.428 382.331 245.418 382.373 245.408 382.416C245.329 382.772 245.254 383.133 245.183 383.497C245.171 383.552 245.16 383.607 245.149 383.663C245.081 384.015 245.017 384.371 244.955 384.731C244.943 384.804 244.929 384.875 244.917 384.947C244.859 385.293 244.805 385.642 244.754 385.995C244.741 386.085 244.726 386.173 244.714 386.262C244.666 386.6 244.622 386.942 244.581 387.287C244.567 387.394 244.553 387.499 244.541 387.607C244.503 387.936 244.469 388.271 244.436 388.605C244.423 388.73 244.41 388.854 244.397 388.978C244.368 389.3 244.343 389.627 244.318 389.954C244.308 390.094 244.295 390.233 244.285 390.374C244.263 390.692 244.247 391.013 244.229 391.333C244.221 391.486 244.211 391.638 244.205 391.791C244.19 392.108 244.181 392.429 244.172 392.75C244.167 392.91 244.159 393.068 244.156 393.23C244.149 393.569 244.147 393.91 244.145 394.252C244.144 394.397 244.141 394.542 244.141 394.688C244.141 395.176 244.147 395.668 244.158 396.162C244.172 396.761 244.197 397.355 244.226 397.945C244.234 398.087 244.242 398.227 244.25 398.369C244.279 398.876 244.314 399.38 244.354 399.88C244.36 399.956 244.366 400.034 244.373 400.11C244.478 401.35 244.618 402.562 244.789 403.745C245.642 409.623 247.289 414.731 249.422 418.401C249.449 418.447 249.474 418.493 249.501 418.539C249.762 418.981 250.03 419.402 250.305 419.8C250.323 419.827 250.342 419.853 250.362 419.88C252.362 422.747 254.706 424.425 257.182 424.436C259.676 424.447 261.956 422.769 263.831 419.882C265.738 416.944 267.221 412.758 268.082 407.809Z" fill="white" stroke="#263238" stroke-miterlimit="10" stroke-linecap="round" stroke-linejoin="round"/>
<path d="M652.735 405.974C651.804 383.519 636.799 365.278 619.22 365.234H600.164C582.584 365.189 569.089 383.356 570.019 405.811C570.95 428.266 585.955 446.507 603.534 446.551H622.592C640.169 446.597 653.665 428.429 652.735 405.974Z" fill="#263238" stroke="#263238" stroke-miterlimit="10" stroke-linecap="round" stroke-linejoin="round"/>
<path d="M660.301 391.575C660.301 391.575 659.591 377.364 657.816 372.391C656.042 367.418 650.719 359.957 650.719 359.957C650.719 359.957 645.396 347.522 636.525 339.707C627.653 331.891 613.103 324.076 609.554 322.3C606.005 320.523 601.392 319.458 594.65 314.84C587.908 310.221 546.034 281.09 532.904 273.275C519.774 265.459 491.384 261.551 485.706 260.486C480.029 259.42 414.732 254.802 392.022 254.802C369.31 254.802 322.468 255.868 296.562 265.815C296.562 265.815 288.046 268.302 286.981 270.788C285.917 273.275 285.207 275.051 285.207 275.051L259.656 312.353C259.656 312.353 250.43 311.643 247.591 319.459C244.752 327.275 245.817 337.932 245.817 337.932C245.817 337.932 239.074 354.629 238.719 367.063C238.363 379.496 239.783 388.734 239.783 388.734C239.783 388.734 238.009 365.997 243.332 358.892C248.655 351.787 259.656 357.116 263.915 369.905C268.174 382.694 273.141 406.496 273.141 406.496L385.634 429.588C385.634 429.588 379.957 399.746 387.409 382.694C394.861 365.642 429.638 366.708 436.025 397.615C442.413 428.522 440.284 434.206 440.284 434.206C440.284 434.206 464.06 439.179 536.453 438.113C608.845 437.048 648.591 428.521 659.236 425.679C659.236 425.679 661.721 412.535 662.43 404.719C663.14 396.904 660.301 391.575 660.301 391.575ZM402.313 320.169C401.603 321.945 400.184 323.01 400.184 323.01C397.345 325.852 389.537 323.01 389.537 323.01C389.537 323.01 355.77 317.638 325.58 312.924C327.402 293.515 336.391 274.798 341.899 264.905C347.628 265.372 360.003 266.931 374.278 277.183C390.602 288.906 403.023 318.392 402.313 320.169Z" fill="#B5D750" stroke="#263238" stroke-miterlimit="10" stroke-linecap="round" stroke-linejoin="round"/>
<path d="M338.68 301.667C338.68 301.667 324.823 317.852 324.31 319.65C323.797 321.448 325.08 327.356 329.956 327.613C334.832 327.87 361.747 318.128 361.747 318.128L345.285 315.923L346.635 311.943" fill="#B2B2B2"/>
<path d="M338.68 301.667C338.68 301.667 324.823 317.852 324.31 319.65C323.797 321.448 325.08 327.356 329.956 327.613C334.832 327.87 361.747 318.128 361.747 318.128L345.285 315.923L346.635 311.943" stroke="#263238" stroke-miterlimit="10" stroke-linecap="round" stroke-linejoin="round"/>
<path d="M331.238 314.768L345.284 315.921" stroke="#263238" stroke-miterlimit="10" stroke-linecap="round" stroke-linejoin="round"/>
<path opacity="0.15" d="M662.43 404.719C663.14 396.903 660.302 391.575 660.302 391.575C660.302 391.575 660.074 387.028 659.556 382.178C615.153 395.294 535.702 396.179 513.545 394.222C488.092 391.973 442.931 385.809 440.929 378.483C438.927 371.157 421.465 354.502 409.486 350.005C399.219 346.15 280.057 329.633 246.221 324.993C245.184 331.518 245.816 337.932 245.816 337.932C245.816 337.932 239.074 354.628 238.719 367.063C238.364 379.496 239.783 388.734 239.783 388.734C239.783 388.734 238.009 365.997 243.332 358.892C248.655 351.787 259.656 357.116 263.915 369.905C268.173 382.694 273.141 406.496 273.141 406.496L385.634 429.587C385.634 429.587 379.956 399.746 387.408 382.694C394.86 365.641 429.637 366.707 436.025 397.614C442.413 428.522 440.284 434.206 440.284 434.206C440.284 434.206 464.06 439.18 536.452 438.113C608.845 437.048 648.591 428.521 659.236 425.679C659.236 425.679 661.72 412.534 662.43 404.719Z" fill="black"/>
<path d="M381.293 315.083C382.807 307.248 387.856 292.589 387.856 292.589C387.856 292.589 396.266 304.509 400.086 312.856C403.907 321.202 400.087 324.332 396.613 325.027C393.139 325.722 379.591 321.202 379.591 321.202L381.293 315.083Z" fill="#263238" stroke="#263238" stroke-miterlimit="10" stroke-linecap="round" stroke-linejoin="round"/>
<path d="M332.177 264.872C325.24 265.271 315.481 266.3 307.917 267.945C299.755 269.721 296.917 270.076 295.497 271.498C294.077 272.919 280.237 290.327 275.269 302.76C275.269 302.76 275.979 305.958 279.173 305.958C280.334 305.958 295.239 308.212 313.737 311.08C316.833 300.057 323.055 280.634 332.177 264.872Z" fill="#757575" stroke="#263238" stroke-miterlimit="10" stroke-linecap="round" stroke-linejoin="round"/>
<path d="M325.898 329.683L315.804 327.858C315.804 327.858 313.333 328.644 314.081 331.119C314.829 333.592 316.166 333.322 316.166 333.322L324.571 334.676C324.571 334.676 326.571 334.893 326.999 332.897C327.427 330.901 327.994 330.643 325.898 329.683Z" stroke="#263238" stroke-miterlimit="10" stroke-linecap="round" stroke-linejoin="round"/>
<path d="M274.86 320.878L267.153 319.396C267.153 319.396 265.266 320.035 265.838 322.044C266.409 324.053 267.43 323.834 267.43 323.834L273.847 324.934C273.847 324.934 275.375 325.11 275.701 323.488C276.028 321.868 276.461 321.658 274.86 320.878Z" stroke="#263238" stroke-miterlimit="10" stroke-linecap="round" stroke-linejoin="round"/>
<path d="M336.606 263.775C336.606 263.775 322.215 290.567 319.69 312.808" stroke="#263238" stroke-miterlimit="10" stroke-linecap="round" stroke-linejoin="round"/>
<path d="M316.407 317.358C316.407 317.358 309.844 328.48 309.591 332.271C309.339 336.062 310.096 381.556 311.358 389.897" stroke="#263238" stroke-miterlimit="10" stroke-linecap="round" stroke-linejoin="round"/>
<path d="M385.838 333.282C385.838 333.282 380.284 351.732 380.032 365.633C379.779 379.534 379.527 405.568 379.527 405.568" stroke="#263238" stroke-miterlimit="10" stroke-linecap="round" stroke-linejoin="round"/>
<path d="M274.496 307.754C274.496 307.754 262.63 318.622 261.62 322.16C260.61 325.699 261.873 356.028 261.873 356.028" stroke="#263238" stroke-miterlimit="10" stroke-linecap="round" stroke-linejoin="round"/>
<path d="M276.77 390.403C276.77 390.403 278.537 395.458 282.324 396.721C286.11 397.985 378.01 415.677 378.01 415.677" stroke="#263238" stroke-miterlimit="10" stroke-linecap="round" stroke-linejoin="round"/>
<path d="M542.997 406.441C542.997 406.441 613.372 407.411 639.521 399.332C639.521 399.332 636.939 416.784 632.096 420.339C627.254 423.893 592.06 427.524 574.956 428.095C555.587 428.742 544.611 426.802 544.611 426.802L542.997 406.441Z" fill="#263238" stroke="#263238" stroke-miterlimit="10" stroke-linecap="round" stroke-linejoin="round"/>
<path d="M530.406 362.489L537.508 377.032C537.508 377.032 577.215 378.002 581.735 378.325C586.254 378.647 591.097 380.91 596.262 378.325C601.427 375.739 623.702 372.83 626.284 372.83C628.867 372.83 632.095 375.093 632.095 375.093C632.095 375.093 626.284 360.55 624.025 359.257C621.765 357.965 619.505 358.288 618.537 358.288C617.569 358.289 570.437 354.733 530.406 362.489Z" fill="#263238" stroke="#263238" stroke-miterlimit="10" stroke-linecap="round" stroke-linejoin="round"/>
<path d="M455.568 333.46C455.568 333.46 438.686 330.86 432.192 333.135C425.698 335.411 428.945 344.186 439.984 352.312C451.023 360.437 460.114 368.238 471.477 369.538C482.841 370.838 502.321 375.064 503.295 371.488C504.268 367.913 500.697 354.912 487.71 345.486C474.724 336.061 455.568 333.46 455.568 333.46Z" fill="white" stroke="#263238" stroke-miterlimit="10" stroke-linecap="round" stroke-linejoin="round"/>
<path d="M591.278 314.931L588.037 315.912C588.037 315.912 582.014 316.094 572.375 316.36C564.115 316.602 553.207 316.905 541.149 317.219C524.508 317.667 505.691 318.127 488.7 318.49C462.722 319.035 440.978 319.313 437.713 318.83C432.101 318.006 425.825 315.972 419.996 310.863C416.718 308.005 413.574 304.168 410.768 299.01C402.968 284.7 383.17 267.157 383.17 267.157C414.336 263.573 488.687 264.881 497.128 265.207C499.233 265.279 501.929 265.607 504.929 266.152C513.939 267.75 525.694 271.298 532.514 275.934C533.724 276.758 535.671 278.053 538.114 279.687C543.822 283.501 552.287 289.119 560.789 294.76C565.917 298.15 571.056 301.552 575.616 304.579C584.565 310.488 591.278 314.931 591.278 314.931Z" fill="white" stroke="#263238" stroke-miterlimit="10" stroke-linecap="round" stroke-linejoin="round"/>
<path d="M532.514 275.936C533.724 276.759 535.671 278.054 538.114 279.688L488.7 318.491C462.723 319.036 440.978 319.314 437.713 318.831C432.101 318.007 425.825 315.973 419.996 310.864L504.93 266.153C513.939 267.751 525.694 271.299 532.514 275.936Z" fill="#263238" stroke="#263238" stroke-miterlimit="10" stroke-linecap="round" stroke-linejoin="round"/>
<path d="M575.616 304.581L572.375 316.361C564.115 316.604 553.207 316.906 541.149 317.221L560.789 294.763C565.916 298.151 571.056 301.553 575.616 304.581Z" fill="#263238" stroke="#263238" stroke-miterlimit="10" stroke-linecap="round" stroke-linejoin="round"/>
<path d="M521.296 352.765C523.274 354.769 525.184 356.892 526.995 359.137" stroke="#263238" stroke-miterlimit="10" stroke-linecap="round" stroke-linejoin="round"/>
<path d="M473.426 324.034C473.426 324.034 497.999 331.269 517.885 349.48" stroke="#263238" stroke-miterlimit="10" stroke-linecap="round" stroke-linejoin="round"/>
<path d="M630.818 358.563C633.273 363.194 635.234 368.359 636.41 374.088" stroke="#263238" stroke-miterlimit="10" stroke-linecap="round" stroke-linejoin="round"/>
<path d="M593.229 325.335C593.229 325.335 614.998 333.777 628.052 353.865" stroke="#263238" stroke-miterlimit="10" stroke-linecap="round" stroke-linejoin="round"/>
<path d="M492.906 412.766C492.906 416.535 489.271 419.592 484.789 419.592C480.307 419.592 476.672 416.536 476.672 412.766C476.672 408.997 480.307 405.94 484.789 405.94C489.271 405.941 492.906 408.997 492.906 412.766Z" fill="white" stroke="#263238" stroke-miterlimit="10" stroke-linecap="round" stroke-linejoin="round"/>
<path d="M661.005 401.676C660.318 404.925 658.127 407.212 656.109 406.785C654.091 406.358 653.013 403.378 653.699 400.129C654.385 396.88 656.577 394.592 658.594 395.019C660.611 395.447 661.691 398.426 661.005 401.676Z" fill="white" stroke="#263238" stroke-miterlimit="10" stroke-linecap="round" stroke-linejoin="round"/>
<path d="M384.413 321.398C384.413 321.398 378.75 311.849 375.172 311.252C371.595 310.655 356.392 310.058 353.113 312.147C349.834 314.236 350.728 321.1 351.92 322.89C353.112 324.681 357.882 325.576 362.056 325.277C366.229 324.979 380.24 326.172 380.24 326.172C380.24 326.172 388.586 332.141 391.567 331.544C394.548 330.946 398.423 324.382 395.74 320.801C393.058 317.22 388.885 318.116 384.413 321.398Z" fill="#263238" stroke="#263238" stroke-miterlimit="10" stroke-linecap="round" stroke-linejoin="round"/>
<path d="M384.413 321.398L394.25 323.487" stroke="#263238" stroke-miterlimit="10" stroke-linecap="round" stroke-linejoin="round"/>
<path d="M296.562 265.814C296.562 265.814 288.046 268.301 286.981 270.787C285.917 273.274 285.207 275.05 285.207 275.05L259.656 312.352C259.656 312.352 250.43 311.642 247.591 319.458C244.752 327.274 245.817 337.931 245.817 337.931C245.817 337.931 239.074 354.628 238.719 367.062C238.363 379.495 239.783 388.733 239.783 388.733C239.783 388.733 238.009 365.996 243.332 358.891C248.655 351.786 259.656 357.115 263.915 369.904C268.174 382.693 273.141 406.495 273.141 406.495L385.634 429.587C385.634 429.587 379.957 399.745 387.409 382.693C394.861 365.64 429.638 366.706 436.025 397.614C442.413 428.521 440.284 434.205 440.284 434.205C440.284 434.205 464.06 439.179 536.453 438.112C608.845 437.047 648.591 428.52 659.236 425.679C659.236 425.679 661.721 412.534 662.43 404.719C663.14 396.903 660.301 391.575 660.301 391.575C660.301 391.575 659.591 377.364 657.816 372.391C656.042 367.418 650.719 359.957 650.719 359.957C650.719 359.957 645.396 347.523 636.525 339.707C627.653 331.891 613.103 324.076 609.554 322.3C606.005 320.523 601.392 319.458 594.65 314.84C587.908 310.221 546.034 281.09 532.904 273.275C519.774 265.459 491.384 261.551 485.706 260.486C480.029 259.42 414.732 254.802 392.022 254.802C369.31 254.801 322.468 255.867 296.562 265.814Z" stroke="#263238" stroke-miterlimit="10" stroke-linecap="round" stroke-linejoin="round"/>
<path d="M623.748 330.535C623.748 330.535 616.606 333.135 618.554 335.735C620.503 338.335 631.216 345.16 636.087 353.612C640.957 362.062 641.931 366.287 644.203 366.287C646.477 366.287 651.392 362.077 650.72 359.957C650.046 357.837 646.476 338.66 623.748 330.535Z" fill="white" stroke="#263238" stroke-miterlimit="10" stroke-linecap="round" stroke-linejoin="round"/>
<path d="M266.509 395.659C266.435 392.165 266.076 388.837 265.493 385.81L260.692 391.668C260.899 392.909 261.031 394.241 261.061 395.637C261.065 395.837 261.061 396.032 261.061 396.229L266.513 397.958C266.524 397.2 266.525 396.434 266.509 395.659Z" fill="#263238" stroke="#263238" stroke-miterlimit="10" stroke-linecap="round" stroke-linejoin="round"/>
<path d="M258.001 384.914C258.5 385.445 258.957 386.177 259.361 387.062L262.741 376.933C261.568 374.432 260.18 372.543 258.669 371.465L258.001 384.914Z" fill="#263238" stroke="#263238" stroke-miterlimit="10" stroke-linecap="round" stroke-linejoin="round"/>
<path d="M260.374 402.232C260.13 403.187 259.826 404.037 259.477 404.759L262.253 416.857C263.583 414.686 264.67 411.719 265.414 408.216L260.374 402.232Z" fill="#263238" stroke="#263238" stroke-miterlimit="10" stroke-linecap="round" stroke-linejoin="round"/>
<path d="M252.207 389.337L247.313 382.706C246.595 385.963 246.178 389.699 246.143 393.698L251.616 394.002C251.673 392.302 251.88 390.722 252.207 389.337Z" fill="#263238" stroke="#263238" stroke-miterlimit="10" stroke-linecap="round" stroke-linejoin="round"/>
<path d="M253.872 385.305C254.272 384.759 254.712 384.362 255.179 384.136L254.379 370.69C252.647 371.287 251.08 372.975 249.789 375.472L253.872 385.305Z" fill="#263238" stroke="#263238" stroke-miterlimit="10" stroke-linecap="round" stroke-linejoin="round"/>
<path d="M257.097 407.245C256.927 407.29 256.754 407.318 256.577 407.317C256.079 407.315 255.593 407.119 255.134 406.763L252.45 418.351C253.805 419.908 255.302 420.785 256.862 420.791C257.287 420.793 257.706 420.722 258.115 420.599L257.097 407.245Z" fill="#263238" stroke="#263238" stroke-miterlimit="10" stroke-linecap="round" stroke-linejoin="round"/>
<path d="M252.167 400.618L246.754 402.976C247.314 406.83 248.229 410.288 249.395 413.113L252.869 403.13C252.595 402.37 252.361 401.524 252.167 400.618Z" fill="#263238" stroke="#263238" stroke-miterlimit="10" stroke-linecap="round" stroke-linejoin="round"/>
<path d="M240.584 295.403C240.584 295.403 300.495 298.758 305.764 300.955C311.032 303.152 312.349 308.426 312.349 308.426L237.276 305.79L240.584 295.403Z" fill="white" stroke="#263238" stroke-miterlimit="10" stroke-linecap="round" stroke-linejoin="round"/>
<path d="M284.382 265.877C284.382 265.877 250.228 290.744 237.277 305.79L224.106 303.153L260.639 268.066L284.382 265.877Z" fill="white" stroke="#263238" stroke-miterlimit="10" stroke-linecap="round" stroke-linejoin="round"/>
<path d="M319.689 312.808C319.689 312.808 326.143 281.287 336.604 263.775C336.604 263.775 299.936 258.835 259.986 264.989C257.664 265.347 221.472 295.681 221.472 295.681C221.472 295.681 200.347 313.738 199.96 317.217C199.96 317.217 213.064 362.901 260.769 394.097L312.575 402.48C312.575 402.48 309.106 346.153 309.612 334.004C309.918 326.648 319.689 312.808 319.689 312.808ZM232.886 301.394C227.618 299.636 232.886 294.362 232.886 294.362L264.151 269.383C285.663 265.867 324.642 269.75 324.642 269.75C322.008 274.585 312.349 308.426 312.349 308.426C312.349 308.426 238.155 303.153 232.886 301.394Z" fill="#B5D750" stroke="#263238" stroke-miterlimit="10" stroke-linecap="round" stroke-linejoin="round"/>
<path d="M216.2 313.838L209.576 313.261C209.576 313.261 206.983 313.55 206.983 315.857C206.983 318.163 208.999 318.452 208.999 318.452L221.837 319.615C221.837 319.615 221.533 315.726 223.549 314.572L216.2 313.838Z" fill="#263238" stroke="#263238" stroke-miterlimit="10" stroke-linecap="round" stroke-linejoin="round"/>
<path d="M207.301 319.22C207.301 319.22 209.411 321.967 211.521 321.967C213.632 321.967 221.652 322.812 221.652 322.812" fill="#B5D750"/>
<path d="M207.301 319.22C207.301 319.22 209.411 321.967 211.521 321.967C213.632 321.967 221.652 322.812 221.652 322.812" stroke="#263238" stroke-miterlimit="10" stroke-linecap="round" stroke-linejoin="round"/>
<path d="M626.089 271.201L628.639 271.005L639.428 303.797L636.373 304.182L626.089 271.201Z" fill="#263238" stroke="#263238" stroke-miterlimit="10" stroke-linecap="round" stroke-linejoin="round"/>
<path d="M608.528 269.579C608.528 269.579 612.343 267.496 613.21 267.496C614.077 267.496 617.199 271.663 617.199 271.663C617.199 271.663 612.864 274.093 612.344 274.266C611.823 274.44 608.875 273.051 608.875 273.051C608.875 273.051 605.927 275.308 604.54 277.912C603.153 280.516 597.43 290.064 597.43 290.064C597.43 290.064 594.309 294.577 591.014 292.667C587.72 290.758 586.506 286.244 587.893 284.334C589.28 282.425 608.528 269.579 608.528 269.579Z" fill="white" stroke="#263238" stroke-miterlimit="10" stroke-linecap="round" stroke-linejoin="round"/>
<path d="M605.581 274.44C605.581 274.44 606.622 275.655 607.661 275.828C608.702 276.001 611.65 276.001 611.65 276.001C611.65 276.001 614.944 275.654 612.344 274.265C609.743 272.877 607.661 272.182 607.661 272.182" fill="white"/>
<path d="M605.581 274.44C605.581 274.44 606.622 275.655 607.661 275.828C608.702 276.001 611.65 276.001 611.65 276.001C611.65 276.001 614.944 275.654 612.344 274.265C609.743 272.877 607.661 272.182 607.661 272.182" stroke="#263238" stroke-miterlimit="10" stroke-linecap="round" stroke-linejoin="round"/>
<path d="M130.826 191.031L116.901 201.165L104.214 191.333L104.199 191.323C98.4541 187.23 94.7043 180.51 94.7043 172.912C94.7043 160.446 104.801 150.343 117.253 150.343C129.705 150.343 139.797 160.446 139.797 172.912C139.797 180.394 136.422 186.921 130.826 191.031Z" fill="white" stroke="#263238" stroke-miterlimit="10" stroke-linecap="round" stroke-linejoin="round"/>
<path d="M97.4612 172.763C97.4612 177.576 99.1748 181.992 102.021 185.435C105.66 189.824 111.15 192.62 117.297 192.62C122.962 192.62 128.066 190.248 131.684 186.441C135.064 182.877 137.132 178.059 137.132 172.764C137.132 161.798 128.256 152.907 117.296 152.907C106.342 152.906 97.4612 161.796 97.4612 172.763Z" fill="#B5D750" stroke="#263238" stroke-miterlimit="10" stroke-linejoin="round"/>
<path d="M117.297 192.619C122.193 192.619 126.668 190.845 130.129 187.906C129.481 181.193 123.833 175.944 116.957 175.944C110.27 175.944 104.755 180.914 103.862 187.364C107.396 190.623 112.11 192.619 117.297 192.619Z" fill="#263238" stroke="#263238" stroke-miterlimit="10" stroke-linejoin="round"/>
<path d="M125.326 169.52C126.725 164.894 124.114 160.009 119.493 158.608C114.873 157.208 109.993 159.822 108.594 164.448C107.195 169.073 109.806 173.958 114.427 175.359C119.047 176.76 123.927 174.145 125.326 169.52Z" fill="#263238" stroke="#263238" stroke-miterlimit="10" stroke-linejoin="round"/>
<path d="M372.743 254.314L358.818 264.448L346.131 254.616L346.116 254.605C340.371 250.512 336.621 243.793 336.621 236.194C336.621 223.729 346.718 213.626 359.17 213.626C371.622 213.626 381.714 223.729 381.714 236.194C381.713 243.676 378.339 250.205 372.743 254.314Z" fill="white" stroke="#263238" stroke-miterlimit="10" stroke-linecap="round" stroke-linejoin="round"/>
<path d="M339.376 236.046C339.376 240.859 341.09 245.275 343.936 248.717C347.575 253.107 353.065 255.903 359.212 255.903C364.877 255.903 369.981 253.531 373.599 249.724C376.979 246.16 379.047 241.342 379.047 236.047C379.047 225.08 370.171 216.189 359.211 216.189C348.256 216.188 339.376 225.079 339.376 236.046Z" fill="#B5D750" stroke="#263238" stroke-miterlimit="10" stroke-linejoin="round"/>
<path d="M359.212 255.903C364.107 255.903 368.582 254.129 372.044 251.19C371.395 244.476 365.748 239.228 358.872 239.228C352.184 239.228 346.669 244.198 345.776 250.647C349.31 253.907 354.025 255.903 359.212 255.903Z" fill="#263238" stroke="#263238" stroke-miterlimit="10" stroke-linejoin="round"/>
<path d="M367.394 232.267C368.507 227.564 365.601 222.848 360.904 221.734C356.206 220.619 351.495 223.528 350.382 228.231C349.269 232.934 352.174 237.65 356.872 238.764C361.57 239.879 366.281 236.97 367.394 232.267Z" fill="#263238" stroke="#263238" stroke-miterlimit="10" stroke-linejoin="round"/>
<path d="M121.691 449.013C150.441 449.013 173.748 446.715 173.748 443.881C173.748 441.046 150.441 438.749 121.691 438.749C92.9416 438.749 69.6353 441.046 69.6353 443.881C69.6353 446.715 92.9416 449.013 121.691 449.013Z" fill="#263238" stroke="#263238" stroke-miterlimit="10" stroke-linecap="round" stroke-linejoin="round"/>
<path d="M150.175 416.283L155.534 432.819C155.534 432.819 163.449 434.627 165.394 434.39C167.338 434.154 174.464 432.697 174.629 434.059C174.794 435.422 172.531 436.289 171.825 436.968C171.118 437.647 166.173 440.816 164.298 441.636C162.424 442.456 156.707 444.139 155.028 444.935C153.348 445.731 151.35 447.159 150.048 444.551C148.745 441.943 148.149 438.657 147.937 436.904C147.725 435.152 139.125 421.181 139.125 421.181L150.175 416.283Z" fill="white" stroke="#263238" stroke-miterlimit="10" stroke-linecap="round" stroke-linejoin="round"/>
<path d="M165.393 434.39C165.048 434.432 164.574 434.406 164.032 434.339L164.485 436.673C164.485 436.673 154.129 440.452 148.959 441.753C149.251 442.706 149.605 443.667 150.046 444.551C151.349 447.159 153.347 445.731 155.026 444.934C156.706 444.137 162.423 442.455 164.297 441.635C166.171 440.815 171.116 437.646 171.823 436.967C172.53 436.288 174.794 435.421 174.629 434.058C174.464 432.697 167.339 434.154 165.393 434.39Z" fill="#B5D750" stroke="#263238" stroke-miterlimit="10" stroke-linecap="round" stroke-linejoin="round"/>
<path d="M184.636 255.942C184.636 255.942 187.841 255.273 187.508 256.009C187.174 256.744 184.903 257.279 184.903 257.279C184.903 257.279 187.374 257.346 186.906 257.88C186.438 258.415 185.103 258.549 185.103 258.549L184.034 259.618C184.034 259.618 183.032 260.554 182.766 260.822C182.499 261.089 180.362 262.761 179.894 261.892C179.426 261.022 179.894 259.218 180.362 258.817C180.829 258.416 184.636 255.942 184.636 255.942Z" fill="white" stroke="#263238" stroke-miterlimit="10" stroke-linecap="round" stroke-linejoin="round"/>
<path d="M126.797 266.405L143.976 275.786L174.18 264.948C174.18 264.948 175.496 262.958 177.426 259.818C179.357 256.678 182.764 255.209 184.252 254.294C185.739 253.379 187.01 253.807 186.583 254.726C186.156 255.646 183.396 256.485 182.829 257.121C182.261 257.756 179.421 261.639 179.421 261.639C179.421 261.639 184.519 259.107 185.368 259.039C186.216 258.971 186.709 259.61 185.505 260.385C184.3 261.159 182.247 262.356 181.821 262.92C181.395 263.484 180.401 264.685 179.622 265.248C178.843 265.812 177.568 266.445 177.568 266.445C177.568 266.445 148.369 286.033 146.788 286.824C145.208 287.616 141.889 287.616 141.889 287.616L126.082 281.128L126.797 266.405Z" fill="white" stroke="#263238" stroke-miterlimit="10" stroke-linecap="round" stroke-linejoin="round"/>
<path d="M148.026 274.361L143.976 275.786L126.797 266.405L126.081 281.128L141.888 287.616C141.888 287.616 145.207 287.616 146.787 286.824C147.15 286.643 149.192 285.41 152.105 283.631L148.026 274.361Z" fill="#B5D750" stroke="#263238" stroke-miterlimit="10" stroke-linecap="round" stroke-linejoin="round"/>
<path d="M80.9613 412.454L75.8792 424.536C75.8792 424.536 68.6096 431.576 68.7023 432.581C68.794 433.585 69.9069 435.985 71.9667 437.046C74.0265 438.108 77.2208 439.841 77.2208 439.841C77.2208 439.841 82.1586 443.081 85.2592 443.809C88.3608 444.538 91.6283 445.787 92.1311 444.132C92.634 442.478 86.7306 439.088 86.7306 439.088C86.7306 439.088 84.0608 433.971 83.5611 432.41C83.0613 430.847 83.3426 427.426 83.3426 427.426L92.6206 416.985L80.9613 412.454Z" fill="white" stroke="#263238" stroke-miterlimit="10" stroke-linecap="round" stroke-linejoin="round"/>
<path d="M86.7317 439.088C86.7317 439.088 84.7625 439.03 83.3518 438.564C81.9412 438.098 78.6933 435.12 75.5577 431.416C74.4593 430.12 73.3371 429.006 72.3376 428.099C70.5045 430.008 68.6559 432.072 68.7023 432.582C68.794 433.586 69.9068 435.986 71.9677 437.048C74.0285 438.109 77.2218 439.842 77.2218 439.842C77.2218 439.842 82.1597 443.082 85.2602 443.81C88.3618 444.539 91.6293 445.788 92.1321 444.133C92.635 442.478 86.7317 439.088 86.7317 439.088Z" fill="#B5D750" stroke="#263238" stroke-miterlimit="10" stroke-linecap="round" stroke-linejoin="round"/>
<path d="M96.3948 336.899L96.3309 374.15L77.2092 411.667L94.4658 421.97L115.153 382.479L120.175 354.754L96.3948 336.899Z" fill="white" stroke="#263238" stroke-miterlimit="10" stroke-linecap="round" stroke-linejoin="round"/>
<path d="M95.2049 316.664C95.2049 316.664 90.8451 330.948 91.6375 334.122C92.4299 337.296 116.36 385.467 116.36 385.467L135.633 424.985L157.036 418.636L138.804 367.056L125.327 335.313V318.251L95.2049 316.664Z" fill="white" stroke="#263238" stroke-miterlimit="10" stroke-linecap="round" stroke-linejoin="round"/>
<path d="M125.165 247.33L123.236 252.402L118.245 249.79L118.838 244.343L125.165 247.33Z" fill="white" stroke="#263238" stroke-miterlimit="10" stroke-linecap="round" stroke-linejoin="round"/>
<path d="M126.336 253.693C126.336 253.693 123.344 254.593 123.662 257.508C123.979 260.423 128.6 271.651 129.734 277.624C130.869 283.598 129.909 284.955 130.11 287.576C130.311 290.198 129.114 314.603 129.461 318.866C129.808 323.128 128.151 323.434 116.979 323.19C105.807 322.945 99.4776 321.441 95.9639 319.433C92.4501 317.424 94.0823 314.352 95.325 311.889C96.5677 309.425 101.704 277.163 104.378 269.005C107.052 260.848 107.545 257.814 111.922 254.88C116.299 251.945 116.889 252.497 117.189 251.231C117.489 249.964 118.18 248.089 118.18 248.089L126.336 253.693Z" fill="#B5D750" stroke="#263238" stroke-miterlimit="10" stroke-linecap="round" stroke-linejoin="round"/>
<path d="M116.55 285.059C116.55 285.059 119.539 288.315 123.67 288.766" stroke="#263238" stroke-miterlimit="10" stroke-linecap="round" stroke-linejoin="round"/>
<path d="M114.988 296.119C115.379 296.632 115.792 297.124 116.23 297.579" stroke="#263238" stroke-miterlimit="10" stroke-linecap="round" stroke-linejoin="round"/>
<path d="M110.01 285.601C110.01 285.601 111.25 290.261 113.802 294.385" stroke="#263238" stroke-miterlimit="10" stroke-linecap="round" stroke-linejoin="round"/>
<path d="M135.698 224.451C135.698 224.451 137.142 227.653 135.985 231.055C134.828 234.459 134.528 236.113 135.437 237.454C136.346 238.795 136.733 240.451 135.264 241.268C133.794 242.084 132.885 242.12 132.885 242.12C132.885 242.12 130.273 248.516 128.544 249.145C126.815 249.775 121.188 247.609 119.387 246.415C117.586 245.222 119.054 232.593 120.303 230.438C121.552 228.282 135.698 224.451 135.698 224.451Z" fill="white" stroke="#263238" stroke-miterlimit="10" stroke-linecap="round" stroke-linejoin="round"/>
<path d="M130.672 242.13C128.739 242.22 127.925 240.061 127.925 240.061C127.925 240.061 126.705 243.644 128.195 244.143C129.686 244.64 130.672 242.13 130.672 242.13Z" stroke="#263238" stroke-miterlimit="10" stroke-linecap="round" stroke-linejoin="round"/>
<path d="M133.707 234.974C133.529 235.846 133.019 236.478 132.567 236.385C132.115 236.294 131.892 235.512 132.068 234.64C132.245 233.768 132.755 233.136 133.208 233.229C133.66 233.321 133.884 234.102 133.707 234.974Z" fill="#263238"/>
<path d="M140.185 218.32C140.185 218.32 140.27 223.008 136.774 225.421C133.277 227.834 124.316 230.462 122.959 231.261C121.601 232.058 121.617 233.547 121.617 233.547C121.617 233.547 120.342 241.786 120.355 245.338C120.368 248.891 123.598 251.798 122.423 254.4C121.248 257.003 117.495 257.165 115.098 257.218C112.701 257.27 113.383 260.713 109.162 262.901C104.94 265.09 101.56 264.043 99.2972 260.748C97.0355 257.452 98.1339 255.78 96.1833 255.069C94.2337 254.359 91.0538 255.917 88.7755 250.444C86.4983 244.972 88.5664 240.846 90.2223 239.769C91.8782 238.692 98.1205 239.036 97.7969 232.209C97.4724 225.381 103.249 214.563 111.804 210.166C120.358 205.77 134.115 214.162 135.972 215.001C137.829 215.842 140.243 216.589 140.185 218.32Z" fill="#263238" stroke="#263238" stroke-miterlimit="10" stroke-linecap="round" stroke-linejoin="round"/>
<path d="M131.972 309.229C131.972 309.229 127.159 272.956 123.238 264.24C119.318 255.526 115.229 251.342 109.044 258.954C102.858 266.565 99.9553 311.096 99.9553 311.096" stroke="#263238" stroke-width="2" stroke-miterlimit="10" stroke-linecap="round" stroke-linejoin="round"/>
<path d="M119.196 269.663C119.196 269.663 104.872 303.129 102.71 305.276C100.548 307.422 92.449 311.938 90.3789 306.638C88.3087 301.339 105.604 262.191 109.447 258.243C113.289 254.295 120.607 255.892 120.784 262.903" fill="#B5D750"/>
<path d="M119.196 269.663C119.196 269.663 104.872 303.129 102.71 305.276C100.548 307.422 92.449 311.938 90.3789 306.638C88.3087 301.339 105.604 262.191 109.447 258.243C113.289 254.295 120.607 255.892 120.784 262.903" stroke="#263238" stroke-miterlimit="10" stroke-linecap="round" stroke-linejoin="round"/>
<path d="M120.428 301.956C120.428 301.956 123.421 301.308 125.057 299.699C126.693 298.091 128.706 297.498 130.47 297.691C132.234 297.884 134.675 297.825 134.804 299.626C134.933 301.427 133.687 302.429 133.171 302.697C132.654 302.965 132.151 309.085 130.763 309.908C129.375 310.732 124.008 309.334 122.101 308.962C120.194 308.592 108.134 310.525 102.039 309.86C95.9445 309.195 90.4554 308.92 90.3791 306.637C90.3029 304.354 93.2489 298.177 100.09 297.949C106.931 297.721 112.642 301.919 120.428 301.956Z" fill="white" stroke="#263238" stroke-miterlimit="10" stroke-linecap="round" stroke-linejoin="round"/>
<path d="M131.972 309.229C131.972 309.229 129.018 311.018 115.192 311.296C101.365 311.573 99.9566 311.095 99.9566 311.095C99.9566 311.095 95.8442 328.849 97.3239 330.793C100.022 334.338 127.853 333.638 130.574 331.011C133.294 328.384 131.972 309.229 131.972 309.229Z" fill="#969696" stroke="#263238" stroke-miterlimit="10" stroke-linecap="round" stroke-linejoin="round"/>
<path d="M131.764 232.048C131.764 232.048 132.707 230.583 134.474 231.346" stroke="#263238" stroke-miterlimit="10" stroke-linecap="round" stroke-linejoin="round"/>
</svg>
